{"glyphs":{"0":{"ha":810,"x_min":49,"x_max":758,"o":"m 758 483 q 672 113 758 242 q 403 -17 586 -17 q 135 113 221 -17 q 49 483 49 242 q 135 856 49 726 q 404 985 221 985 q 672 856 586 985 q 758 483 758 726 m 536 483 q 509 736 536 649 q 403 824 482 824 q 298 736 325 824 q 271 483 271 649 q 298 232 271 319 q 404 144 325 144 q 509 232 482 144 q 536 483 536 319 z "},"1":{"ha":810,"x_min":108,"x_max":603,"o":"m 603 0 l 375 0 l 375 740 l 210 614 l 108 758 l 408 968 l 601 968 l 603 0 z "},"2":{"ha":810,"x_min":57,"x_max":729,"o":"m 57 0 l 57 168 q 189 286 125 226 q 315 413 253 346 q 427 549 378 478 q 476 688 476 621 q 437 779 476 746 q 333 813 397 813 q 183 783 254 813 q 92 738 113 754 l 79 918 q 196 962 113 939 q 372 985 279 985 q 615 910 528 985 q 703 701 703 836 q 638 497 703 599 q 518 340 572 394 q 435 253 478 294 q 344 169 392 211 l 729 169 l 728 0 l 57 0 z "},"3":{"ha":810,"x_min":63,"x_max":726,"o":"m 103 767 l 92 940 q 194 969 121 954 q 364 985 267 985 q 622 919 528 985 q 715 728 715 853 q 667 588 715 646 q 533 504 618 529 q 678 429 629 488 q 726 281 726 371 q 619 61 726 139 q 332 -17 513 -17 q 169 -6 238 -17 q 63 18 101 4 l 74 201 q 159 172 96 188 q 303 156 222 156 q 445 192 389 156 q 501 286 501 228 q 447 385 501 356 q 301 415 393 415 l 208 414 l 208 578 l 279 576 q 433 606 378 576 q 489 697 489 636 q 445 783 489 754 q 319 813 401 813 q 188 797 246 813 q 103 767 131 781 z "},"4":{"ha":810,"x_min":18,"x_max":786,"o":"m 400 968 l 657 968 l 657 354 l 786 354 l 786 194 l 657 194 l 657 0 l 451 0 l 451 194 l 18 194 l 18 375 l 400 968 m 451 764 l 197 354 l 451 354 l 451 764 z "},"5":{"ha":810,"x_min":96,"x_max":740,"o":"m 710 968 l 710 807 l 322 807 l 319 624 l 403 632 q 651 549 561 632 q 740 319 740 467 q 632 72 740 161 q 340 -17 524 -17 q 181 -3 250 -17 q 96 15 111 11 l 101 208 q 177 176 117 196 q 318 156 238 156 q 465 198 410 156 q 519 315 519 240 q 460 431 519 392 q 296 471 401 471 q 194 464 243 471 q 111 447 146 457 l 119 968 l 710 968 z "},"6":{"ha":810,"x_min":58,"x_max":749,"o":"m 749 315 q 654 76 749 169 q 411 -17 560 -17 q 152 94 246 -17 q 58 453 58 206 q 165 835 58 690 q 465 985 271 979 q 596 972 538 985 q 688 944 654 960 l 665 785 l 671 785 q 589 813 633 801 q 499 825 544 825 q 308 713 364 810 q 264 521 268 640 q 338 589 293 565 q 460 621 394 621 q 672 540 596 621 q 749 315 749 458 m 275 299 q 299 207 286 233 q 406 140 331 140 q 496 185 461 140 q 531 300 531 231 q 497 416 531 372 q 404 460 463 460 q 308 410 344 460 q 275 299 285 378 z "},"7":{"ha":810,"x_min":71,"x_max":733,"o":"m 733 968 l 733 793 l 385 0 l 361 0 l 167 4 l 142 4 l 500 799 l 71 799 l 71 968 l 733 968 z "},"8":{"ha":810,"x_min":49,"x_max":763,"o":"m 390 425 q 299 358 328 393 q 271 265 271 324 q 312 179 271 215 q 410 143 353 143 q 503 178 465 143 q 540 267 540 214 q 503 363 540 325 q 390 425 467 401 m 401 829 q 315 796 350 829 q 279 714 279 763 q 313 633 279 669 q 414 576 347 596 q 487 626 449 589 q 525 717 525 664 q 491 799 525 768 q 401 829 457 829 m 233 500 q 106 600 142 540 q 69 718 69 660 q 158 915 69 846 q 403 985 247 985 q 645 921 556 985 q 735 740 735 857 q 689 604 735 669 q 571 517 643 539 q 718 417 674 476 q 763 261 763 358 q 665 58 763 132 q 406 -17 568 -17 q 145 56 242 -17 q 49 257 49 128 q 95 406 49 347 q 233 500 142 465 z "},"9":{"ha":810,"x_min":60,"x_max":750,"o":"m 60 653 q 154 892 60 800 q 397 985 249 985 q 657 874 564 985 q 750 515 750 763 q 644 133 750 278 q 344 -17 539 -11 q 215 -4 272 -17 q 126 24 158 8 l 147 183 l 135 183 q 219 154 172 165 q 311 143 267 143 q 499 254 446 160 q 543 443 538 324 q 472 378 515 401 q 350 347 415 347 q 138 429 215 347 q 60 653 60 511 m 532 671 q 510 758 521 733 q 403 828 479 828 q 312 784 346 828 q 278 668 278 740 q 313 551 278 596 q 404 507 347 507 q 500 557 465 507 q 532 671 524 590 z "},"Ĉ":{"ha":694,"x_min":103,"x_max":615,"o":"m 103 0 l 103 968 l 615 968 l 615 0 l 103 0 m 153 918 l 153 50 l 565 50 l 565 918 l 153 918 z "}," ":{"ha":404,"x_min":0,"x_max":0,"o":""},"!":{"ha":569,"x_min":168,"x_max":401,"o":"m 283 211 q 392 210 390 211 q 393 106 393 208 q 392 0 393 1 q 285 -1 390 -1 q 176 0 178 -1 q 175 104 175 1 q 176 210 175 208 q 283 211 178 211 m 401 967 l 393 764 l 368 307 l 200 307 l 175 758 l 168 967 l 401 967 z "},"\"":{"ha":756,"x_min":156,"x_max":599,"o":"m 599 971 l 599 813 l 597 608 l 422 608 l 421 814 l 421 971 l 599 971 m 333 971 l 333 813 l 332 608 l 157 608 l 156 814 l 156 971 l 333 971 z "},"#":{"ha":813,"x_min":60,"x_max":750,"o":"m 60 401 l 199 401 l 222 567 l 99 567 l 99 699 l 240 699 l 279 968 l 415 968 l 376 699 l 511 699 l 550 968 l 686 968 l 647 699 l 750 699 l 750 567 l 629 567 l 606 401 l 711 401 l 711 269 l 586 269 l 547 -1 l 411 -1 l 450 269 l 315 269 l 276 -1 l 140 -1 l 179 269 l 60 269 l 60 401 m 335 401 l 469 401 l 493 567 l 358 567 l 335 401 z "},"$":{"ha":810,"x_min":67,"x_max":751,"o":"m 444 1089 l 444 985 q 571 974 513 983 q 689 942 638 963 l 671 771 q 551 808 617 797 q 444 821 497 819 l 444 585 q 482 572 453 582 q 691 458 631 524 q 751 276 751 393 q 650 58 751 136 q 444 -14 575 1 l 444 -132 l 369 -132 l 369 -18 q 224 -7 300 -18 q 92 22 143 6 l 99 24 l 92 24 l 108 210 q 205 172 136 194 q 361 150 274 150 q 369 150 367 150 l 369 399 q 353 404 365 400 q 138 511 208 449 q 67 693 67 574 q 163 908 67 833 q 369 982 238 968 l 369 1089 l 444 1089 m 369 613 l 369 815 q 317 792 336 806 q 279 708 279 764 q 314 640 279 668 q 369 613 326 632 m 444 369 l 444 160 q 490 179 472 168 q 540 261 540 210 q 501 336 540 303 q 444 369 486 349 z "},"%":{"ha":1369,"x_min":104,"x_max":1271,"o":"m 906 997 l 1026 997 l 456 -29 l 336 -29 l 906 997 m 340 985 q 517 916 456 985 q 578 719 578 847 q 518 517 578 588 q 340 447 458 447 q 164 517 224 447 q 104 715 104 586 q 165 914 104 843 q 340 985 226 985 m 338 865 q 278 826 296 865 q 261 715 261 788 q 278 604 261 642 q 340 567 294 567 q 402 606 385 567 q 419 718 419 644 q 401 828 419 792 q 338 865 383 865 m 1033 521 q 1210 452 1149 521 q 1271 257 1271 383 q 1210 53 1271 124 q 1033 -17 1150 -17 q 856 53 917 -17 q 796 253 796 122 q 858 450 796 379 q 1033 521 919 521 m 1031 401 q 971 363 989 401 q 953 253 953 324 q 970 140 953 178 q 1033 103 988 103 q 1095 142 1078 103 q 1113 256 1113 181 q 1094 365 1113 328 q 1031 401 1076 401 z "},"&":{"ha":1043,"x_min":71,"x_max":1033,"o":"m 997 524 q 953 345 989 424 q 863 201 917 267 q 854 192 858 196 q 1033 0 943 97 l 776 0 l 714 65 q 649 29 681 43 q 424 -17 544 -17 q 163 70 254 -17 q 71 267 71 157 q 131 440 71 374 q 268 532 179 494 q 190 614 224 572 q 146 756 146 672 q 233 922 146 860 q 449 985 321 985 q 671 929 581 985 q 763 760 761 874 q 665 572 763 650 q 560 507 618 535 q 731 325 647 417 q 781 419 767 379 q 801 524 799 468 l 997 524 m 442 608 q 503 647 468 622 q 565 746 565 694 q 534 812 565 788 q 457 836 503 836 q 383 812 415 836 q 350 744 350 788 q 408 640 350 697 q 442 608 424 625 m 383 417 q 311 361 333 390 q 283 275 283 324 q 331 178 283 217 q 443 139 379 139 q 586 183 517 139 q 596 190 592 188 l 383 417 z "},"'":{"ha":421,"x_min":121,"x_max":299,"o":"m 299 971 l 299 813 l 297 608 l 122 608 l 121 814 l 121 971 l 299 971 z "},"(":{"ha":504,"x_min":74,"x_max":486,"o":"m 288 422 q 349 72 288 240 q 486 -200 411 -97 l 300 -200 q 147 65 221 -107 q 74 422 74 236 q 147 780 74 608 q 300 1044 221 951 l 486 1044 q 349 773 411 942 q 288 422 288 604 z "},")":{"ha":504,"x_min":18,"x_max":431,"o":"m 217 422 q 154 773 217 604 q 18 1044 92 942 l 204 1044 q 356 780 282 951 q 431 422 431 608 q 356 65 431 236 q 204 -200 282 -107 l 18 -200 q 154 72 92 -97 q 217 422 217 240 z "},"*":{"ha":803,"x_min":110,"x_max":693,"o":"m 401 599 l 303 414 l 171 511 l 317 660 l 110 696 l 161 851 l 349 760 l 319 967 l 483 967 l 454 760 l 642 851 l 693 696 l 486 660 l 632 511 l 500 414 l 401 599 z "},"+":{"ha":832,"x_min":65,"x_max":769,"o":"m 338 443 l 338 711 l 499 711 l 499 443 l 769 443 l 769 282 l 499 282 l 499 10 l 338 10 l 338 282 l 65 282 l 65 443 l 338 443 z "},",":{"ha":404,"x_min":19,"x_max":325,"o":"m 111 210 q 319 208 313 210 q 325 201 325 206 q 258 15 321 182 q 189 -156 194 -153 l 19 -153 l 24 -146 l 108 199 l 106 204 l 111 210 z "},"-":{"ha":463,"x_min":46,"x_max":415,"o":"m 46 453 l 415 453 l 415 285 l 46 285 l 46 453 z "},".":{"ha":404,"x_min":93,"x_max":310,"o":"m 201 213 q 308 211 307 213 q 310 106 310 210 q 308 0 310 1 q 201 -1 307 -1 q 94 0 96 -1 q 93 106 93 1 q 94 211 93 210 q 201 213 96 213 z "},"/":{"ha":457,"x_min":0,"x_max":460,"o":"m 0 -17 l 300 985 l 460 985 l 160 -17 l 0 -17 z "},":":{"ha":404,"x_min":93,"x_max":310,"o":"m 201 717 q 308 715 307 717 q 310 610 310 714 q 308 504 310 506 q 201 503 307 503 q 94 504 96 503 q 93 610 93 506 q 94 715 93 714 q 201 717 96 717 m 201 213 q 308 211 307 213 q 310 106 310 210 q 308 0 310 1 q 201 -1 307 -1 q 94 0 96 -1 q 93 106 93 1 q 94 211 93 210 q 201 213 96 213 z "},";":{"ha":404,"x_min":19,"x_max":325,"o":"m 201 717 q 308 715 307 717 q 310 610 310 714 q 308 504 310 506 q 201 503 307 503 q 94 504 96 503 q 93 610 93 506 q 94 715 93 714 q 201 717 96 717 m 111 210 q 319 208 313 210 q 325 201 325 206 q 258 15 321 182 q 189 -156 194 -153 l 19 -153 l 24 -146 l 108 199 l 106 204 l 111 210 z "},"<":{"ha":832,"x_min":65,"x_max":769,"o":"m 261 360 l 768 146 l 769 -10 l 65 286 l 65 433 l 769 729 l 768 574 l 261 360 z "},"=":{"ha":832,"x_min":64,"x_max":768,"o":"m 64 436 l 64 597 l 768 597 l 768 436 l 64 436 m 64 122 l 64 283 l 768 283 l 768 122 l 64 122 z "},">":{"ha":832,"x_min":65,"x_max":769,"o":"m 67 146 l 574 360 l 67 574 l 65 729 l 769 433 l 769 286 l 65 -10 l 67 146 z "},"?":{"ha":724,"x_min":81,"x_max":679,"o":"m 356 985 q 598 916 517 985 q 679 747 679 847 q 639 614 679 675 q 560 518 599 553 q 476 409 499 453 q 451 326 454 365 l 450 307 l 267 307 l 265 336 q 294 446 268 390 q 372 561 321 501 q 428 630 401 588 q 454 717 454 672 q 410 792 454 764 q 293 821 367 821 q 179 803 238 821 q 88 769 121 785 l 81 943 q 194 970 122 956 q 356 985 267 985 m 358 211 q 467 210 465 211 q 468 106 468 208 q 467 0 468 1 q 360 -1 465 -1 q 251 0 253 -1 q 250 104 250 1 q 251 210 250 208 q 358 211 253 211 z "},"@":{"ha":1124,"x_min":51,"x_max":1075,"o":"m 588 986 q 938 861 800 986 q 1075 569 1075 736 q 959 297 1075 413 q 714 181 843 181 q 670 195 692 181 q 639 250 649 210 q 580 206 619 228 q 492 183 540 183 q 348 251 417 183 q 279 432 279 319 q 355 651 279 551 q 564 750 431 750 q 656 726 607 750 q 724 654 704 703 l 738 722 l 863 722 l 786 354 q 799 327 786 335 q 813 319 811 319 q 908 396 858 319 q 958 576 958 472 q 851 771 958 688 q 586 854 744 854 q 316 744 429 854 q 203 475 203 635 q 319 207 203 313 q 581 101 436 101 q 764 126 682 101 q 879 182 846 151 l 1011 182 q 856 40 972 110 q 599 -31 740 -31 q 204 123 357 -31 q 51 482 51 276 q 207 833 51 681 q 588 986 363 986 m 569 621 q 469 562 511 621 q 428 439 428 503 q 459 347 428 376 q 525 318 490 318 q 639 366 594 318 q 683 486 683 414 q 653 583 683 546 q 569 621 624 621 z "},"A":{"ha":1046,"x_min":11,"x_max":1036,"o":"m 650 381 l 519 774 l 383 381 l 650 381 m 1036 0 l 786 0 l 708 213 l 324 213 l 244 0 l 11 0 l 386 968 l 654 968 l 1036 0 z "},"B":{"ha":893,"x_min":99,"x_max":838,"o":"m 326 422 l 326 167 l 414 167 q 559 197 508 167 q 610 294 610 228 q 560 392 610 363 q 417 422 511 422 l 326 422 m 474 0 l 99 0 l 99 968 l 479 968 q 720 906 633 968 q 807 725 807 844 q 759 579 807 638 q 619 501 711 521 q 785 420 733 482 q 838 283 838 358 q 742 72 838 144 q 474 0 647 0 m 326 581 l 408 581 q 535 609 490 581 q 579 694 579 638 q 539 776 579 751 q 419 801 499 801 l 326 801 l 326 581 z "},"C":{"ha":899,"x_min":61,"x_max":868,"o":"m 296 482 q 385 246 296 335 q 622 157 474 157 q 752 172 689 157 q 856 206 815 188 l 868 22 q 746 -5 814 7 q 601 -17 678 -17 q 206 115 350 -17 q 61 478 61 246 q 207 848 61 711 q 599 985 353 985 q 754 969 685 985 q 865 938 824 953 l 847 749 q 738 795 799 779 q 613 811 676 811 q 383 719 471 811 q 296 482 296 628 z "},"D":{"ha":1047,"x_min":101,"x_max":981,"o":"m 746 488 q 661 711 746 626 q 440 796 576 796 l 331 796 l 331 172 l 435 172 q 662 257 578 172 q 746 488 746 342 m 101 968 l 432 968 q 845 844 710 968 q 981 483 981 721 q 839 122 981 244 q 422 0 697 0 l 101 0 l 101 968 z "},"E":{"ha":815,"x_min":99,"x_max":740,"o":"m 740 0 l 99 0 l 99 968 l 732 968 l 732 801 l 326 801 l 326 581 l 703 581 l 703 414 l 326 414 l 326 168 l 740 168 l 740 0 z "},"F":{"ha":740,"x_min":99,"x_max":697,"o":"m 326 0 l 99 0 l 99 968 l 697 968 l 697 801 l 326 801 l 326 574 l 679 574 l 681 407 l 326 407 l 326 0 z "},"G":{"ha":1047,"x_min":60,"x_max":956,"o":"m 294 482 q 385 246 294 335 q 622 157 475 157 q 690 163 663 157 q 736 175 717 168 l 736 389 l 561 389 l 561 557 l 956 557 l 956 35 q 809 1 903 18 q 618 -17 715 -17 q 208 115 356 -17 q 60 483 60 246 q 212 853 60 722 q 632 985 364 985 q 802 973 728 985 q 929 940 876 961 l 929 931 l 914 753 q 794 797 860 782 q 661 811 729 811 q 393 723 492 811 q 294 482 294 635 z "},"H":{"ha":1011,"x_min":101,"x_max":908,"o":"m 101 968 l 329 968 l 329 586 l 681 588 l 681 968 l 908 968 l 908 0 l 681 0 l 681 415 l 329 415 l 329 0 l 101 0 l 101 968 z "},"I":{"ha":428,"x_min":101,"x_max":329,"o":"m 329 0 l 101 0 l 101 968 l 329 968 l 329 0 z "},"J":{"ha":574,"x_min":22,"x_max":481,"o":"m 253 968 l 481 968 l 481 282 q 401 47 481 126 q 171 -32 322 -32 q 80 -25 121 -32 q 22 -11 39 -18 l 22 181 q 59 169 32 176 q 124 161 86 161 q 219 205 186 161 q 253 357 253 249 l 253 968 z "},"K":{"ha":967,"x_min":101,"x_max":954,"o":"m 331 0 l 101 0 l 101 968 l 331 968 l 331 560 l 650 968 l 925 968 l 551 514 l 954 0 l 661 0 l 332 446 l 331 446 l 331 0 z "},"L":{"ha":740,"x_min":101,"x_max":721,"o":"m 329 968 l 329 172 l 721 172 l 721 1 l 101 0 l 101 968 l 329 968 z "},"M":{"ha":1346,"x_min":99,"x_max":1250,"o":"m 907 968 l 1250 968 l 1250 0 l 1031 0 l 1033 768 l 774 15 l 571 15 l 317 769 l 319 0 l 99 0 l 99 968 l 451 968 l 676 293 l 907 968 z "},"N":{"ha":1050,"x_min":100,"x_max":951,"o":"m 738 278 l 738 968 l 951 968 l 951 0 l 675 0 l 667 15 l 314 685 l 314 0 l 100 0 l 100 968 l 383 968 l 738 278 z "},"O":{"ha":1088,"x_min":60,"x_max":1025,"o":"m 790 483 q 725 723 790 635 q 543 811 660 811 q 360 723 425 811 q 294 483 294 635 q 360 245 294 333 q 543 157 425 157 q 725 245 660 157 q 790 483 790 333 m 1025 483 q 897 117 1025 250 q 543 -17 769 -17 q 188 117 315 -17 q 60 483 60 250 q 185 853 60 722 q 543 985 311 985 q 899 853 774 985 q 1025 483 1025 722 z "},"P":{"ha":817,"x_min":88,"x_max":786,"o":"m 315 524 l 393 521 q 513 558 469 521 q 557 664 557 596 q 513 765 557 729 q 393 801 468 801 l 315 801 l 315 524 m 315 354 l 315 0 l 88 0 l 88 968 l 385 968 q 683 894 581 968 q 786 667 786 819 q 689 435 786 517 q 418 354 592 354 l 315 354 z "},"Q":{"ha":1088,"x_min":60,"x_max":1025,"o":"m 790 483 q 725 723 790 635 q 543 811 660 811 q 360 723 425 811 q 294 483 294 635 q 360 245 294 333 q 543 157 425 157 q 725 245 660 157 q 790 483 790 333 m 1003 -176 l 756 -178 l 747 -185 l 588 -22 l 572 -17 q 543 -17 563 -17 q 185 115 311 -17 q 60 483 60 246 q 185 853 60 722 q 543 985 311 985 q 899 853 774 985 q 1025 483 1025 722 q 899 114 1025 246 q 785 32 858 72 l 1003 -176 z "},"R":{"ha":892,"x_min":89,"x_max":864,"o":"m 317 393 l 317 0 l 89 0 l 89 968 l 460 968 q 721 905 631 968 q 811 710 811 842 q 764 565 811 631 q 615 479 717 500 q 705 401 676 463 q 754 283 733 340 l 760 271 l 864 0 l 619 0 l 522 268 q 474 358 504 322 q 386 393 443 393 l 317 393 m 317 560 l 413 560 q 535 590 490 560 q 579 681 579 619 q 535 773 579 744 q 406 801 492 801 l 317 801 l 317 560 z "},"S":{"ha":813,"x_min":69,"x_max":749,"o":"m 749 279 q 644 61 749 139 q 361 -17 539 -17 q 204 -2 279 -17 q 82 26 129 13 l 100 221 q 199 180 124 204 q 349 156 274 156 q 469 185 422 156 q 515 264 515 214 q 481 335 515 303 q 342 403 446 368 q 137 510 204 447 q 69 692 69 572 q 173 908 69 832 q 457 985 276 985 q 588 974 525 985 q 694 947 651 963 l 678 767 q 577 801 629 789 q 464 813 525 813 q 347 785 390 813 q 304 704 304 758 q 337 640 304 667 q 496 571 369 614 q 692 460 636 525 q 749 279 749 394 z "},"T":{"ha":783,"x_min":17,"x_max":767,"o":"m 506 0 l 278 0 l 278 796 l 17 796 l 17 968 l 767 968 l 767 796 l 506 796 l 506 0 z "},"U":{"ha":1010,"x_min":92,"x_max":919,"o":"m 692 410 l 692 968 l 919 968 l 919 379 q 816 82 919 181 q 507 -17 713 -17 q 199 78 306 -17 q 92 358 92 174 l 92 968 l 319 968 l 319 401 q 365 219 319 282 q 506 157 411 157 q 647 222 601 157 q 692 410 692 286 z "},"V":{"ha":967,"x_min":13,"x_max":956,"o":"m 725 968 l 956 968 l 619 0 l 349 0 l 13 968 l 256 968 l 490 214 l 725 968 z "},"W":{"ha":1400,"x_min":11,"x_max":1388,"o":"m 1167 968 l 1388 968 l 1144 0 l 863 0 l 699 760 l 540 0 l 257 0 l 11 968 l 247 968 l 406 215 l 558 968 l 849 968 l 1007 217 l 1167 968 z "},"X":{"ha":974,"x_min":13,"x_max":963,"o":"m 686 968 l 935 968 l 642 507 l 963 0 l 692 0 l 482 365 l 274 0 l 13 0 l 335 507 l 44 968 l 310 968 l 497 639 l 686 968 z "},"Y":{"ha":967,"x_min":14,"x_max":951,"o":"m 699 968 l 951 968 l 599 378 l 599 0 l 371 0 l 371 376 l 14 968 l 279 968 l 488 575 l 699 968 z "},"Z":{"ha":819,"x_min":40,"x_max":768,"o":"m 768 172 l 768 0 l 40 0 l 40 172 l 503 796 l 57 796 l 57 968 l 761 968 l 761 794 l 290 172 l 768 172 z "},"[":{"ha":508,"x_min":113,"x_max":460,"o":"m 306 899 l 306 -54 l 379 -53 l 460 -53 l 460 -200 l 314 -200 l 113 -199 l 113 1043 l 314 1044 l 460 1044 l 460 897 l 379 897 l 306 899 z "},"\\":{"ha":457,"x_min":-1,"x_max":457,"o":"m 299 -17 l -1 985 l 157 985 l 457 -17 l 299 -17 z "},"]":{"ha":508,"x_min":53,"x_max":396,"o":"m 203 899 l 131 897 l 53 897 l 53 1044 l 197 1044 l 396 1043 l 396 -199 l 197 -200 l 53 -200 l 53 -53 l 131 -53 l 203 -54 l 203 899 z "},"^":{"ha":832,"x_min":94,"x_max":735,"o":"m 251 446 l 94 446 l 342 968 l 486 968 l 735 446 l 578 446 l 414 796 l 251 446 z "},"_":{"ha":694,"x_min":0,"x_max":699,"o":"m 699 -174 l 0 -174 l 0 -104 l 699 -104 l 699 -174 z "},"`":{"ha":426,"x_min":13,"x_max":342,"o":"m 342 808 l 200 808 l 13 1010 l 239 1010 l 342 808 z "},"a":{"ha":807,"x_min":46,"x_max":739,"o":"m 519 299 l 519 315 q 485 311 510 311 q 424 310 460 311 q 294 284 336 308 q 251 213 251 260 q 279 155 251 176 q 360 133 307 133 q 476 186 432 133 q 519 299 519 239 m 529 115 q 430 15 489 47 q 301 -17 371 -17 q 114 42 182 -17 q 46 194 46 101 q 135 369 46 308 q 396 431 225 429 l 519 429 q 476 526 519 499 q 356 554 432 554 q 235 535 296 554 q 132 483 175 515 l 128 650 q 245 688 169 672 q 394 704 321 704 q 642 633 563 704 q 722 406 722 561 l 722 206 q 727 64 722 122 q 736 6 732 6 l 739 3 l 542 0 q 533 33 536 0 q 529 115 531 67 z "},"b":{"ha":885,"x_min":82,"x_max":839,"o":"m 300 593 q 410 682 351 660 q 533 704 468 704 q 756 608 672 704 q 839 354 839 511 q 755 84 839 185 q 522 -17 671 -17 q 388 15 450 -17 q 286 108 326 46 l 286 0 l 82 0 l 82 1038 l 300 1038 l 300 593 m 300 354 l 300 340 q 346 202 300 254 q 460 150 392 150 q 573 205 532 150 q 614 350 614 260 q 572 486 614 435 q 458 538 529 538 q 343 481 385 538 q 300 354 301 424 z "},"c":{"ha":658,"x_min":46,"x_max":629,"o":"m 622 171 l 629 6 q 560 -8 610 1 q 444 -17 510 -17 q 153 81 261 -17 q 46 349 46 179 q 153 606 46 507 q 435 704 261 704 q 540 695 490 704 q 622 671 589 686 l 606 507 q 551 529 590 518 q 468 540 513 540 q 326 488 379 540 q 272 347 272 435 q 327 201 272 256 q 475 147 382 147 q 569 158 528 147 q 622 171 610 168 z "},"d":{"ha":885,"x_min":46,"x_max":799,"o":"m 596 106 q 492 12 553 40 q 363 -17 431 -17 q 131 83 215 -17 q 46 347 46 182 q 125 603 46 503 q 350 704 204 704 q 472 683 413 704 q 582 599 532 663 l 582 1038 l 799 1038 l 799 0 l 596 0 l 596 106 m 582 333 l 582 349 q 536 486 581 435 q 425 538 492 538 q 315 485 357 538 q 272 347 272 432 q 314 205 272 260 q 426 150 356 150 q 537 204 493 150 q 582 333 581 258 z "},"e":{"ha":808,"x_min":44,"x_max":754,"o":"m 697 22 q 585 -6 646 4 q 447 -17 524 -17 q 152 79 260 -17 q 44 344 44 175 q 142 606 44 508 q 403 704 240 704 q 668 596 583 704 q 753 297 753 488 l 754 281 l 257 281 q 304 186 274 217 q 469 133 358 133 q 606 152 540 133 q 697 185 672 171 l 697 22 m 256 413 l 539 413 l 554 411 q 515 522 553 485 q 408 558 478 558 q 292 501 333 558 q 256 413 267 469 z "},"f":{"ha":571,"x_min":24,"x_max":561,"o":"m 379 0 l 164 0 l 164 533 l 24 533 l 24 688 l 167 688 l 167 776 q 233 985 167 917 q 432 1054 299 1054 q 510 1049 476 1054 q 561 1040 543 1044 l 549 876 q 519 889 535 883 q 471 894 503 894 q 401 863 421 894 q 379 779 381 832 l 379 688 l 549 688 l 549 533 l 379 533 l 379 0 z "},"g":{"ha":885,"x_min":46,"x_max":793,"o":"m 793 75 q 696 -216 793 -124 q 397 -308 599 -308 q 227 -290 301 -308 q 132 -260 153 -271 l 144 -82 q 238 -123 169 -101 q 368 -144 307 -144 q 530 -92 475 -144 q 585 72 585 -39 l 585 118 q 483 27 543 56 q 358 -1 422 -1 q 129 92 213 -1 q 46 343 46 185 q 130 607 46 510 q 363 704 214 704 q 480 678 424 704 q 575 596 536 651 l 575 688 l 793 688 l 793 75 m 579 343 l 579 357 q 537 488 578 440 q 424 536 496 536 q 313 485 354 536 q 272 350 272 435 q 315 218 272 269 q 425 167 357 167 q 536 217 493 167 q 579 343 579 267 z "},"h":{"ha":885,"x_min":86,"x_max":799,"o":"m 799 0 l 582 0 l 582 382 q 551 490 582 450 q 463 529 521 529 q 345 474 386 529 q 303 315 304 419 l 303 0 l 86 0 l 86 1038 l 303 1038 l 303 583 q 400 672 343 639 q 542 704 457 704 q 733 631 667 704 q 799 425 799 558 l 799 0 z "},"i":{"ha":424,"x_min":101,"x_max":321,"o":"m 101 901 q 103 992 101 990 q 211 993 104 993 q 319 992 318 993 q 321 901 321 990 q 319 811 321 813 q 211 810 318 810 q 103 811 104 810 q 101 901 101 813 m 319 0 l 103 0 l 103 688 l 319 688 l 319 0 z "},"j":{"ha":424,"x_min":-25,"x_max":321,"o":"m 101 901 q 103 992 101 990 q 211 993 104 993 q 319 992 318 993 q 321 901 321 990 q 319 811 321 813 q 211 810 318 810 q 103 811 104 810 q 101 901 101 813 m 104 688 l 319 688 l 319 -36 q 261 -238 319 -168 q 90 -308 203 -308 q 14 -304 42 -308 q -25 -296 -14 -300 l -22 -149 l 29 -147 q 88 -112 72 -143 q 104 -11 104 -81 l 104 688 z "},"k":{"ha":808,"x_min":88,"x_max":799,"o":"m 88 1038 l 304 1038 l 304 400 l 525 688 l 772 688 l 513 375 l 799 0 l 529 0 l 304 342 l 304 343 l 304 0 l 88 0 l 88 1038 z "},"l":{"ha":424,"x_min":103,"x_max":319,"o":"m 103 1038 l 319 1038 l 319 0 l 103 0 l 103 1038 z "},"m":{"ha":1315,"x_min":86,"x_max":1232,"o":"m 1232 0 l 1015 0 l 1015 383 q 988 492 1015 456 q 903 529 961 529 q 803 475 835 529 q 769 315 771 421 l 769 0 l 550 0 l 550 383 q 526 492 550 456 q 449 529 503 529 q 341 474 376 529 q 303 317 306 419 l 303 0 l 86 0 l 86 688 l 289 688 l 289 569 q 386 669 328 635 q 531 704 444 704 q 669 666 611 704 q 747 567 726 628 q 838 665 778 625 q 992 704 897 704 q 1174 635 1117 704 q 1232 425 1232 565 l 1232 0 z "},"n":{"ha":885,"x_min":86,"x_max":799,"o":"m 799 0 l 582 0 l 582 382 q 551 490 582 450 q 463 529 521 529 q 345 474 386 529 q 303 315 304 419 l 303 0 l 86 0 l 86 688 l 289 688 l 289 569 q 391 669 329 635 q 542 704 453 704 q 733 631 667 704 q 799 425 799 558 l 799 0 z "},"o":{"ha":886,"x_min":47,"x_max":839,"o":"m 839 343 q 730 82 839 181 q 443 -17 621 -17 q 156 82 265 -17 q 47 343 47 181 q 156 606 47 507 q 443 704 265 704 q 730 606 621 704 q 839 343 839 507 m 613 343 q 569 492 613 439 q 443 546 525 546 q 317 492 361 546 q 274 343 274 439 q 318 196 274 250 q 443 142 363 142 q 568 196 524 142 q 613 343 613 250 z "},"p":{"ha":885,"x_min":82,"x_max":839,"o":"m 299 94 l 299 -293 l 82 -293 l 82 688 l 286 688 l 286 569 q 395 676 333 647 q 529 704 457 704 q 756 606 672 704 q 839 343 839 507 q 751 82 839 181 q 518 -17 663 -17 q 397 8 457 -17 q 299 94 336 33 m 299 340 q 344 206 300 261 q 458 150 388 150 q 571 205 528 150 q 614 346 614 260 q 572 485 614 433 q 458 536 531 536 q 346 485 390 536 q 299 356 301 433 l 299 340 z "},"q":{"ha":885,"x_min":46,"x_max":803,"o":"m 586 94 q 485 7 540 31 q 368 -17 429 -17 q 133 83 219 -17 q 46 349 46 183 q 130 606 46 508 q 354 704 214 704 q 496 674 433 704 q 600 575 558 643 l 600 688 l 736 688 l 803 690 l 803 -293 l 585 -293 l 586 94 m 586 340 l 586 356 q 540 484 585 432 q 426 536 496 536 q 314 483 356 536 q 272 344 272 431 q 315 203 272 257 q 428 150 357 150 q 542 207 499 150 q 586 340 586 264 z "},"r":{"ha":582,"x_min":89,"x_max":565,"o":"m 304 0 l 89 0 l 89 688 l 285 688 l 285 533 q 372 665 317 625 q 492 704 428 704 q 535 701 518 704 q 565 694 551 697 l 556 499 q 524 506 543 501 q 475 511 504 511 q 349 449 392 511 q 304 281 306 388 l 304 0 z "},"s":{"ha":654,"x_min":46,"x_max":606,"o":"m 606 210 q 521 42 606 101 q 288 -17 436 -17 q 156 -7 219 -17 q 51 18 92 3 l 65 183 q 144 156 82 176 q 275 135 206 135 q 356 149 326 135 q 386 200 386 164 q 355 249 386 231 q 244 286 324 267 q 103 348 161 303 q 46 486 46 393 q 132 647 46 590 q 349 704 218 704 q 467 694 407 704 q 567 671 526 683 l 553 514 q 470 543 521 532 q 371 554 419 554 q 286 540 314 554 q 258 496 258 525 q 289 457 258 472 q 414 418 319 442 q 560 342 514 393 q 606 210 606 292 z "},"t":{"ha":578,"x_min":17,"x_max":556,"o":"m 371 253 q 395 167 371 196 q 467 139 419 139 q 517 144 496 139 q 550 156 539 150 l 556 0 q 497 -11 539 -6 q 407 -17 454 -17 q 219 44 282 -17 q 156 226 156 106 l 156 533 l 17 533 l 17 682 l 158 688 l 167 842 l 369 907 l 371 688 l 546 688 l 546 533 l 371 533 l 371 253 z "},"u":{"ha":885,"x_min":85,"x_max":797,"o":"m 797 688 l 797 0 l 597 0 l 597 122 q 502 24 567 65 q 351 -17 438 -17 q 153 56 222 -17 q 85 265 85 129 l 85 688 l 301 688 l 301 331 q 331 201 301 243 q 426 158 360 158 q 538 213 497 158 q 582 372 579 268 l 582 688 l 797 688 z "},"v":{"ha":806,"x_min":15,"x_max":792,"o":"m 792 688 l 524 0 l 282 0 l 15 688 l 249 688 l 411 204 l 574 688 l 792 688 z "},"w":{"ha":1264,"x_min":14,"x_max":1254,"o":"m 769 688 l 911 194 l 1043 688 l 1254 688 l 1031 0 l 782 0 l 642 501 l 493 0 l 249 0 l 14 688 l 243 688 l 381 193 l 518 692 l 597 688 l 769 688 z "},"x":{"ha":808,"x_min":13,"x_max":799,"o":"m 776 688 l 556 357 l 799 0 l 536 0 l 394 229 l 256 0 l 13 0 l 258 356 l 33 688 l 290 688 l 415 479 l 540 688 l 776 688 z "},"y":{"ha":806,"x_min":14,"x_max":794,"o":"m 574 688 l 794 688 l 493 -57 q 384 -247 450 -186 q 214 -308 318 -308 q 113 -301 151 -308 q 63 -292 74 -294 l 76 -135 l 167 -149 q 247 -122 215 -149 q 286 -44 278 -94 l 294 -26 l 14 688 l 250 688 l 415 217 l 574 688 z "},"z":{"ha":696,"x_min":40,"x_max":651,"o":"m 53 688 l 643 688 l 643 519 l 300 163 l 651 163 l 651 0 l 40 0 l 40 171 l 386 525 l 53 525 l 53 688 z "},"{":{"ha":504,"x_min":38,"x_max":475,"o":"m 38 363 l 38 482 q 130 521 107 492 q 153 628 153 550 l 153 860 q 203 985 153 926 q 367 1044 254 1044 l 475 1044 l 475 924 l 413 924 q 357 905 378 924 q 336 833 336 886 l 336 608 q 297 474 336 518 q 178 422 258 431 q 297 370 258 414 q 336 236 336 326 l 336 11 q 356 -60 336 -42 q 413 -79 376 -79 l 475 -79 l 475 -200 l 367 -200 q 203 -141 254 -200 q 153 -15 153 -82 l 153 217 q 130 324 153 294 q 38 363 107 353 z "},"|":{"ha":313,"x_min":76,"x_max":235,"o":"m 76 -33 l 76 1042 l 235 1042 l 235 -33 l 76 -33 z "},"}":{"ha":504,"x_min":28,"x_max":471,"o":"m 471 482 l 471 363 q 376 324 400 353 q 353 217 353 294 l 353 -15 q 302 -141 353 -82 q 136 -200 251 -200 l 28 -200 l 28 -79 l 92 -79 q 148 -60 126 -79 q 169 11 169 -42 l 169 236 q 209 370 169 326 q 331 422 249 414 q 209 474 249 431 q 169 608 169 518 l 169 833 q 149 905 169 886 q 92 924 128 924 l 28 924 l 28 1044 l 136 1044 q 302 985 251 1044 q 353 860 353 926 l 353 628 q 376 521 353 550 q 471 482 400 492 z "},"~":{"ha":832,"x_min":92,"x_max":742,"o":"m 269 319 q 192 286 228 319 q 140 222 156 253 l 92 361 q 160 443 115 406 q 265 481 204 481 q 426 433 335 481 q 564 386 517 386 q 641 419 607 386 q 693 483 675 453 l 742 344 q 674 263 718 300 q 568 225 631 225 q 408 272 499 225 q 269 319 317 319 z "},"Ä":{"ha":1046,"x_min":11,"x_max":1036,"o":"m 650 381 l 519 774 l 383 381 l 650 381 m 1036 0 l 786 0 l 708 213 l 324 213 l 244 0 l 11 0 l 386 968 l 654 968 l 1036 0 m 372 1228 q 464 1226 463 1228 q 465 1132 465 1225 q 464 1038 465 1039 q 374 1036 463 1036 q 283 1038 283 1036 q 282 1132 282 1039 q 283 1226 282 1225 q 372 1228 283 1228 m 672 1228 q 764 1226 763 1228 q 765 1132 765 1225 q 764 1038 765 1039 q 674 1036 763 1036 q 583 1038 583 1036 q 582 1132 582 1039 q 583 1226 582 1225 q 672 1228 583 1228 z "},"Å":{"ha":1046,"x_min":11,"x_max":1036,"o":"m 650 381 l 519 774 l 383 381 l 650 381 m 1036 0 l 786 0 l 708 213 l 324 213 l 244 0 l 11 0 l 386 968 l 654 968 l 1036 0 m 524 1311 q 631 1267 586 1311 q 675 1160 675 1222 q 631 1053 675 1097 q 524 1008 586 1008 q 417 1053 461 1008 q 372 1160 372 1097 q 417 1267 372 1222 q 524 1311 461 1311 m 524 1231 q 474 1210 494 1231 q 453 1160 453 1189 q 474 1110 453 1131 q 524 1089 494 1089 q 574 1110 553 1089 q 594 1160 594 1131 q 574 1210 594 1189 q 524 1231 553 1231 z "},"Ç":{"ha":899,"x_min":61,"x_max":868,"o":"m 296 482 q 385 246 296 335 q 622 157 474 157 q 752 172 689 157 q 856 206 815 188 l 868 22 q 746 -5 814 7 q 601 -17 678 -17 q 206 115 350 -17 q 61 478 61 246 q 207 848 61 711 q 599 985 353 985 q 754 969 685 985 q 865 938 824 953 l 847 749 q 738 795 799 779 q 613 811 676 811 q 383 719 471 811 q 296 482 296 628 m 376 -276 l 400 -206 q 435 -220 406 -210 q 504 -231 465 -231 q 559 -219 540 -231 q 578 -185 578 -208 q 563 -149 578 -162 q 524 -136 549 -136 l 475 -146 l 440 -112 l 508 0 l 599 0 l 546 -83 l 610 -74 q 688 -103 658 -74 q 717 -182 717 -132 q 668 -274 717 -242 q 536 -306 619 -306 q 442 -296 483 -306 q 376 -276 401 -286 z "},"É":{"ha":815,"x_min":99,"x_max":740,"o":"m 740 0 l 99 0 l 99 968 l 732 968 l 732 801 l 326 801 l 326 581 l 703 581 l 703 414 l 326 414 l 326 168 l 740 168 l 740 0 m 296 1026 l 399 1228 l 625 1228 l 439 1026 l 296 1026 z "},"Ñ":{"ha":1050,"x_min":100,"x_max":951,"o":"m 738 278 l 738 968 l 951 968 l 951 0 l 675 0 l 667 15 l 314 685 l 314 0 l 100 0 l 100 968 l 383 968 l 738 278 m 786 1228 q 738 1100 781 1156 q 626 1044 696 1044 q 517 1070 579 1044 q 417 1096 454 1096 q 373 1079 390 1096 q 354 1038 356 1063 l 265 1038 q 313 1165 271 1110 q 425 1221 356 1221 q 535 1195 472 1221 q 635 1169 597 1169 q 678 1186 661 1169 q 697 1228 696 1203 l 786 1228 z "},"Ö":{"ha":1088,"x_min":60,"x_max":1025,"o":"m 790 483 q 725 723 790 635 q 543 811 660 811 q 360 723 425 811 q 294 483 294 635 q 360 245 294 333 q 543 157 425 157 q 725 245 660 157 q 790 483 790 333 m 1025 483 q 897 117 1025 250 q 543 -17 769 -17 q 188 117 315 -17 q 60 483 60 250 q 185 853 60 722 q 543 985 311 985 q 899 853 774 985 q 1025 483 1025 722 m 393 1228 q 485 1226 483 1228 q 486 1132 486 1225 q 485 1038 486 1039 q 394 1036 483 1036 q 303 1038 304 1036 q 303 1132 303 1039 q 303 1226 303 1225 q 393 1228 304 1228 m 693 1228 q 785 1226 783 1228 q 786 1132 786 1225 q 785 1038 786 1039 q 694 1036 783 1036 q 603 1038 604 1036 q 603 1132 603 1039 q 603 1226 603 1225 q 693 1228 604 1228 z "},"Ü":{"ha":1010,"x_min":92,"x_max":919,"o":"m 692 410 l 692 968 l 919 968 l 919 379 q 816 82 919 181 q 507 -17 713 -17 q 199 78 306 -17 q 92 358 92 174 l 92 968 l 319 968 l 319 401 q 365 219 319 282 q 506 157 411 157 q 647 222 601 157 q 692 410 692 286 m 354 1228 q 446 1226 444 1228 q 447 1132 447 1225 q 446 1038 447 1039 q 356 1036 444 1036 q 265 1038 265 1036 q 264 1132 264 1039 q 265 1226 264 1225 q 354 1228 265 1228 m 654 1228 q 746 1226 744 1228 q 747 1132 747 1225 q 746 1038 747 1039 q 656 1036 744 1036 q 565 1038 565 1036 q 564 1132 564 1039 q 565 1226 564 1225 q 654 1228 565 1228 z "},"á":{"ha":807,"x_min":46,"x_max":739,"o":"m 519 299 l 519 315 q 485 311 510 311 q 424 310 460 311 q 294 284 336 308 q 251 213 251 260 q 279 155 251 176 q 360 133 307 133 q 476 186 432 133 q 519 299 519 239 m 529 115 q 430 15 489 47 q 301 -17 371 -17 q 114 42 182 -17 q 46 194 46 101 q 135 369 46 308 q 396 431 225 429 l 519 429 q 476 526 519 499 q 356 554 432 554 q 235 535 296 554 q 132 483 175 515 l 128 650 q 245 688 169 672 q 394 704 321 704 q 642 633 563 704 q 722 406 722 561 l 722 206 q 727 64 722 122 q 736 6 732 6 l 739 3 l 542 0 q 533 33 536 0 q 529 115 531 67 m 289 808 l 392 1010 l 618 1010 l 432 808 l 289 808 z "},"à":{"ha":807,"x_min":46,"x_max":739,"o":"m 519 299 l 519 315 q 485 311 510 311 q 424 310 460 311 q 294 284 336 308 q 251 213 251 260 q 279 155 251 176 q 360 133 307 133 q 476 186 432 133 q 519 299 519 239 m 529 115 q 430 15 489 47 q 301 -17 371 -17 q 114 42 182 -17 q 46 194 46 101 q 135 369 46 308 q 396 431 225 429 l 519 429 q 476 526 519 499 q 356 554 432 554 q 235 535 296 554 q 132 483 175 515 l 128 650 q 245 688 169 672 q 394 704 321 704 q 642 633 563 704 q 722 406 722 561 l 722 206 q 727 64 722 122 q 736 6 732 6 l 739 3 l 542 0 q 533 33 536 0 q 529 115 531 67 m 508 808 l 367 808 l 179 1010 l 406 1010 l 508 808 z "},"â":{"ha":807,"x_min":46,"x_max":739,"o":"m 519 299 l 519 315 q 485 311 510 311 q 424 310 460 311 q 294 284 336 308 q 251 213 251 260 q 279 155 251 176 q 360 133 307 133 q 476 186 432 133 q 519 299 519 239 m 529 115 q 430 15 489 47 q 301 -17 371 -17 q 114 42 182 -17 q 46 194 46 101 q 135 369 46 308 q 396 431 225 429 l 519 429 q 476 526 519 499 q 356 554 432 554 q 235 535 296 554 q 132 483 175 515 l 128 650 q 245 688 169 672 q 394 704 321 704 q 642 633 563 704 q 722 406 722 561 l 722 206 q 727 64 722 122 q 736 6 732 6 l 739 3 l 542 0 q 533 33 536 0 q 529 115 531 67 m 157 807 l 310 1011 l 490 1011 l 644 807 l 499 807 l 400 919 l 303 807 l 157 807 z "},"ä":{"ha":807,"x_min":46,"x_max":739,"o":"m 519 299 l 519 315 q 485 311 510 311 q 424 310 460 311 q 294 284 336 308 q 251 213 251 260 q 279 155 251 176 q 360 133 307 133 q 476 186 432 133 q 519 299 519 239 m 529 115 q 430 15 489 47 q 301 -17 371 -17 q 114 42 182 -17 q 46 194 46 101 q 135 369 46 308 q 396 431 225 429 l 519 429 q 476 526 519 499 q 356 554 432 554 q 235 535 296 554 q 132 483 175 515 l 128 650 q 245 688 169 672 q 394 704 321 704 q 642 633 563 704 q 722 406 722 561 l 722 206 q 727 64 722 122 q 736 6 732 6 l 739 3 l 542 0 q 533 33 536 0 q 529 115 531 67 m 250 1010 q 342 1008 340 1010 q 343 914 343 1007 q 342 819 343 821 q 251 818 340 818 q 160 819 161 818 q 160 914 160 821 q 160 1008 160 1007 q 250 1010 161 1010 m 550 1010 q 642 1008 640 1010 q 643 914 643 1007 q 642 819 643 821 q 551 818 640 818 q 460 819 461 818 q 460 914 460 821 q 460 1008 460 1007 q 550 1010 461 1010 z "},"ã":{"ha":807,"x_min":46,"x_max":739,"o":"m 519 299 l 519 315 q 485 311 510 311 q 424 310 460 311 q 294 284 336 308 q 251 213 251 260 q 279 155 251 176 q 360 133 307 133 q 476 186 432 133 q 519 299 519 239 m 529 115 q 430 15 489 47 q 301 -17 371 -17 q 114 42 182 -17 q 46 194 46 101 q 135 369 46 308 q 396 431 225 429 l 519 429 q 476 526 519 499 q 356 554 432 554 q 235 535 296 554 q 132 483 175 515 l 128 650 q 245 688 169 672 q 394 704 321 704 q 642 633 563 704 q 722 406 722 561 l 722 206 q 727 64 722 122 q 736 6 732 6 l 739 3 l 542 0 q 533 33 536 0 q 529 115 531 67 m 661 1010 q 613 882 656 938 q 501 826 571 826 q 392 852 454 826 q 292 878 329 878 q 248 861 265 878 q 229 819 231 844 l 140 819 q 188 947 146 892 q 300 1003 231 1003 q 410 977 347 1003 q 510 951 472 951 q 553 968 536 951 q 572 1010 571 985 l 661 1010 z "},"å":{"ha":807,"x_min":46,"x_max":739,"o":"m 519 299 l 519 315 q 485 311 510 311 q 424 310 460 311 q 294 284 336 308 q 251 213 251 260 q 279 155 251 176 q 360 133 307 133 q 476 186 432 133 q 519 299 519 239 m 529 115 q 430 15 489 47 q 301 -17 371 -17 q 114 42 182 -17 q 46 194 46 101 q 135 369 46 308 q 396 431 225 429 l 519 429 q 476 526 519 499 q 356 554 432 554 q 235 535 296 554 q 132 483 175 515 l 128 650 q 245 688 169 672 q 394 704 321 704 q 642 633 563 704 q 722 406 722 561 l 722 206 q 727 64 722 122 q 736 6 732 6 l 739 3 l 542 0 q 533 33 536 0 q 529 115 531 67 m 401 1092 q 508 1047 464 1092 q 553 940 553 1003 q 508 833 553 878 q 401 789 464 789 q 294 833 339 789 q 250 940 250 878 q 294 1047 250 1003 q 401 1092 339 1092 m 401 1011 q 351 990 372 1011 q 331 940 331 969 q 351 890 331 911 q 401 869 372 869 q 451 890 431 869 q 472 940 472 911 q 451 990 472 969 q 401 1011 431 1011 z "},"ç":{"ha":658,"x_min":46,"x_max":629,"o":"m 622 171 l 629 6 q 560 -8 610 1 q 444 -17 510 -17 q 153 81 261 -17 q 46 349 46 179 q 153 606 46 507 q 435 704 261 704 q 540 695 490 704 q 622 671 589 686 l 606 507 q 551 529 590 518 q 468 540 513 540 q 326 488 379 540 q 272 347 272 435 q 327 201 272 256 q 475 147 382 147 q 569 158 528 147 q 622 171 610 168 m 226 -276 l 250 -206 q 285 -220 256 -210 q 354 -231 315 -231 q 409 -219 390 -231 q 428 -185 428 -208 q 413 -149 428 -162 q 374 -136 399 -136 l 325 -146 l 290 -112 l 358 0 l 449 0 l 396 -83 l 460 -74 q 538 -103 508 -74 q 567 -182 567 -132 q 518 -274 567 -242 q 386 -306 469 -306 q 292 -296 333 -306 q 226 -276 251 -286 z "},"é":{"ha":808,"x_min":44,"x_max":754,"o":"m 697 22 q 585 -6 646 4 q 447 -17 524 -17 q 152 79 260 -17 q 44 344 44 175 q 142 606 44 508 q 403 704 240 704 q 668 596 583 704 q 753 297 753 488 l 754 281 l 257 281 q 304 186 274 217 q 469 133 358 133 q 606 152 540 133 q 697 185 672 171 l 697 22 m 256 413 l 539 413 l 554 411 q 515 522 553 485 q 408 558 478 558 q 292 501 333 558 q 256 413 267 469 m 293 808 l 396 1010 l 622 1010 l 436 808 l 293 808 z "},"è":{"ha":808,"x_min":44,"x_max":754,"o":"m 697 22 q 585 -6 646 4 q 447 -17 524 -17 q 152 79 260 -17 q 44 344 44 175 q 142 606 44 508 q 403 704 240 704 q 668 596 583 704 q 753 297 753 488 l 754 281 l 257 281 q 304 186 274 217 q 469 133 358 133 q 606 152 540 133 q 697 185 672 171 l 697 22 m 256 413 l 539 413 l 554 411 q 515 522 553 485 q 408 558 478 558 q 292 501 333 558 q 256 413 267 469 m 513 808 l 371 808 l 183 1010 l 410 1010 l 513 808 z "},"ê":{"ha":808,"x_min":44,"x_max":754,"o":"m 697 22 q 585 -6 646 4 q 447 -17 524 -17 q 152 79 260 -17 q 44 344 44 175 q 142 606 44 508 q 403 704 240 704 q 668 596 583 704 q 753 297 753 488 l 754 281 l 257 281 q 304 186 274 217 q 469 133 358 133 q 606 152 540 133 q 697 185 672 171 l 697 22 m 256 413 l 539 413 l 554 411 q 515 522 553 485 q 408 558 478 558 q 292 501 333 558 q 256 413 267 469 m 161 807 l 314 1011 l 494 1011 l 649 807 l 503 807 l 404 919 l 307 807 l 161 807 z "},"ë":{"ha":808,"x_min":44,"x_max":754,"o":"m 697 22 q 585 -6 646 4 q 447 -17 524 -17 q 152 79 260 -17 q 44 344 44 175 q 142 606 44 508 q 403 704 240 704 q 668 596 583 704 q 753 297 753 488 l 754 281 l 257 281 q 304 186 274 217 q 469 133 358 133 q 606 152 540 133 q 697 185 672 171 l 697 22 m 256 413 l 539 413 l 554 411 q 515 522 553 485 q 408 558 478 558 q 292 501 333 558 q 256 413 267 469 m 256 1010 q 347 1008 346 1010 q 349 914 349 1007 q 347 819 349 821 q 257 818 346 818 q 166 819 167 818 q 165 914 165 821 q 166 1008 165 1007 q 256 1010 167 1010 m 556 1010 q 647 1008 646 1010 q 649 914 649 1007 q 647 819 649 821 q 557 818 646 818 q 466 819 467 818 q 465 914 465 821 q 466 1008 465 1007 q 556 1010 467 1010 z "},"í":{"ha":424,"x_min":101,"x_max":431,"o":"m 319 0 l 103 0 l 103 688 l 319 688 l 319 0 m 101 808 l 204 1010 l 431 1010 l 244 808 l 101 808 z "},"ì":{"ha":424,"x_min":-8,"x_max":321,"o":"m 319 0 l 103 0 l 103 688 l 319 688 l 319 0 m 321 808 l 179 808 l -8 1010 l 218 1010 l 321 808 z "},"î":{"ha":424,"x_min":-31,"x_max":457,"o":"m 319 0 l 103 0 l 103 688 l 319 688 l 319 0 m -31 807 l 122 1011 l 303 1011 l 457 807 l 311 807 l 213 919 l 115 807 l -31 807 z "},"ï":{"ha":424,"x_min":-28,"x_max":456,"o":"m 319 0 l 103 0 l 103 688 l 319 688 l 319 0 m 63 1010 q 154 1008 153 1010 q 156 914 156 1007 q 154 819 156 821 q 64 818 153 818 q -27 819 -26 818 q -28 914 -28 821 q -27 1008 -28 1007 q 63 1010 -26 1010 m 363 1010 q 454 1008 453 1010 q 456 914 456 1007 q 454 819 456 821 q 364 818 453 818 q 273 819 274 818 q 272 914 272 821 q 273 1008 272 1007 q 363 1010 274 1010 z "},"ñ":{"ha":885,"x_min":86,"x_max":799,"o":"m 799 0 l 582 0 l 582 382 q 551 490 582 450 q 463 529 521 529 q 345 474 386 529 q 303 315 304 419 l 303 0 l 86 0 l 86 688 l 289 688 l 289 569 q 391 669 329 635 q 542 704 453 704 q 733 631 667 704 q 799 425 799 558 l 799 0 m 706 1010 q 658 882 700 938 q 546 826 615 826 q 436 852 499 826 q 336 878 374 878 q 292 861 310 878 q 274 819 275 844 l 185 819 q 233 947 190 892 q 344 1003 275 1003 q 454 977 392 1003 q 554 951 517 951 q 598 968 581 951 q 617 1010 615 985 l 706 1010 z "},"ó":{"ha":886,"x_min":47,"x_max":839,"o":"m 839 343 q 730 82 839 181 q 443 -17 621 -17 q 156 82 265 -17 q 47 343 47 181 q 156 606 47 507 q 443 704 265 704 q 730 606 621 704 q 839 343 839 507 m 613 343 q 569 492 613 439 q 443 546 525 546 q 317 492 361 546 q 274 343 274 439 q 318 196 274 250 q 443 142 363 142 q 568 196 524 142 q 613 343 613 250 m 331 808 l 433 1010 l 660 1010 l 474 808 l 331 808 z "},"ò":{"ha":886,"x_min":47,"x_max":839,"o":"m 839 343 q 730 82 839 181 q 443 -17 621 -17 q 156 82 265 -17 q 47 343 47 181 q 156 606 47 507 q 443 704 265 704 q 730 606 621 704 q 839 343 839 507 m 613 343 q 569 492 613 439 q 443 546 525 546 q 317 492 361 546 q 274 343 274 439 q 318 196 274 250 q 443 142 363 142 q 568 196 524 142 q 613 343 613 250 m 550 808 l 408 808 l 221 1010 l 447 1010 l 550 808 z "},"ô":{"ha":886,"x_min":47,"x_max":839,"o":"m 839 343 q 730 82 839 181 q 443 -17 621 -17 q 156 82 265 -17 q 47 343 47 181 q 156 606 47 507 q 443 704 265 704 q 730 606 621 704 q 839 343 839 507 m 613 343 q 569 492 613 439 q 443 546 525 546 q 317 492 361 546 q 274 343 274 439 q 318 196 274 250 q 443 142 363 142 q 568 196 524 142 q 613 343 613 250 m 199 807 l 351 1011 l 532 1011 l 686 807 l 540 807 l 442 919 l 344 807 l 199 807 z "},"ö":{"ha":886,"x_min":47,"x_max":839,"o":"m 839 343 q 730 82 839 181 q 443 -17 621 -17 q 156 82 265 -17 q 47 343 47 181 q 156 606 47 507 q 443 704 265 704 q 730 606 621 704 q 839 343 839 507 m 613 343 q 569 492 613 439 q 443 546 525 546 q 317 492 361 546 q 274 343 274 439 q 318 196 274 250 q 443 142 363 142 q 568 196 524 142 q 613 343 613 250 m 292 1010 q 383 1008 382 1010 q 385 914 385 1007 q 383 819 385 821 q 293 818 382 818 q 202 819 203 818 q 201 914 201 821 q 202 1008 201 1007 q 292 1010 203 1010 m 592 1010 q 683 1008 682 1010 q 685 914 685 1007 q 683 819 685 821 q 593 818 682 818 q 502 819 503 818 q 501 914 501 821 q 502 1008 501 1007 q 592 1010 503 1010 z "},"õ":{"ha":886,"x_min":47,"x_max":839,"o":"m 839 343 q 730 82 839 181 q 443 -17 621 -17 q 156 82 265 -17 q 47 343 47 181 q 156 606 47 507 q 443 704 265 704 q 730 606 621 704 q 839 343 839 507 m 613 343 q 569 492 613 439 q 443 546 525 546 q 317 492 361 546 q 274 343 274 439 q 318 196 274 250 q 443 142 363 142 q 568 196 524 142 q 613 343 613 250 m 703 1010 q 655 882 697 938 q 543 826 613 826 q 433 852 496 826 q 333 878 371 878 q 290 861 307 878 q 271 819 272 844 l 182 819 q 230 947 188 892 q 342 1003 272 1003 q 451 977 389 1003 q 551 951 514 951 q 595 968 578 951 q 614 1010 613 985 l 703 1010 z "},"ú":{"ha":885,"x_min":85,"x_max":797,"o":"m 797 688 l 797 0 l 597 0 l 597 122 q 502 24 567 65 q 351 -17 438 -17 q 153 56 222 -17 q 85 265 85 129 l 85 688 l 301 688 l 301 331 q 331 201 301 243 q 426 158 360 158 q 538 213 497 158 q 582 372 579 268 l 582 688 l 797 688 m 333 808 l 436 1010 l 663 1010 l 476 808 l 333 808 z "},"ù":{"ha":885,"x_min":85,"x_max":797,"o":"m 797 688 l 797 0 l 597 0 l 597 122 q 502 24 567 65 q 351 -17 438 -17 q 153 56 222 -17 q 85 265 85 129 l 85 688 l 301 688 l 301 331 q 331 201 301 243 q 426 158 360 158 q 538 213 497 158 q 582 372 579 268 l 582 688 l 797 688 m 553 808 l 411 808 l 224 1010 l 450 1010 l 553 808 z "},"û":{"ha":885,"x_min":85,"x_max":797,"o":"m 797 688 l 797 0 l 597 0 l 597 122 q 502 24 567 65 q 351 -17 438 -17 q 153 56 222 -17 q 85 265 85 129 l 85 688 l 301 688 l 301 331 q 331 201 301 243 q 426 158 360 158 q 538 213 497 158 q 582 372 579 268 l 582 688 l 797 688 m 201 807 l 354 1011 l 535 1011 l 689 807 l 543 807 l 444 919 l 347 807 l 201 807 z "},"ü":{"ha":885,"x_min":85,"x_max":797,"o":"m 797 688 l 797 0 l 597 0 l 597 122 q 502 24 567 65 q 351 -17 438 -17 q 153 56 222 -17 q 85 265 85 129 l 85 688 l 301 688 l 301 331 q 331 201 301 243 q 426 158 360 158 q 538 213 497 158 q 582 372 579 268 l 582 688 l 797 688 m 294 1010 q 386 1008 385 1010 q 388 914 388 1007 q 386 819 388 821 q 296 818 385 818 q 205 819 206 818 q 204 914 204 821 q 205 1008 204 1007 q 294 1010 206 1010 m 594 1010 q 686 1008 685 1010 q 688 914 688 1007 q 686 819 688 821 q 596 818 685 818 q 505 819 506 818 q 504 914 504 821 q 505 1008 504 1007 q 594 1010 506 1010 z "},"†":{"ha":806,"x_min":76,"x_max":731,"o":"m 504 967 l 501 725 l 731 728 l 731 574 l 501 576 l 506 -14 l 300 -14 l 304 576 l 76 574 l 76 728 l 304 725 l 301 967 l 504 967 z "},"°":{"ha":556,"x_min":64,"x_max":492,"o":"m 278 988 q 429 925 367 988 q 492 774 492 863 q 429 622 492 685 q 278 560 367 560 q 126 622 189 560 q 64 774 64 685 q 126 925 64 863 q 278 988 189 988 m 278 885 q 199 852 232 885 q 167 774 167 819 q 199 695 167 728 q 278 663 232 663 q 356 695 324 663 q 389 774 389 728 q 356 852 389 819 q 278 885 324 885 z "},"¢":{"ha":807,"x_min":107,"x_max":690,"o":"m 365 -167 l 282 -167 l 338 10 q 214 81 260 40 q 107 349 107 179 q 215 606 107 507 q 496 704 322 704 q 554 701 526 704 l 599 844 l 682 844 l 633 688 q 683 671 663 681 l 667 507 q 613 529 651 518 q 585 535 600 533 l 467 157 q 536 147 493 147 q 630 158 589 147 q 683 171 671 168 l 690 6 q 621 -8 671 1 q 506 -17 571 -17 q 414 -10 449 -17 l 365 -167 m 394 194 l 503 539 q 386 488 431 531 q 333 347 333 435 q 388 201 333 256 q 394 194 390 199 z "},"£":{"ha":808,"x_min":72,"x_max":739,"o":"m 72 0 l 72 156 l 75 165 l 193 165 l 196 333 l 196 444 l 86 444 l 86 565 l 199 565 l 200 654 q 294 892 201 800 q 560 985 386 985 q 664 977 618 985 q 739 961 710 969 l 736 921 l 732 792 q 676 807 707 801 q 613 813 646 813 q 474 769 522 813 q 424 624 425 726 l 422 565 l 625 565 l 625 444 l 419 444 l 418 292 l 418 165 l 728 165 l 733 165 l 733 1 l 364 1 l 258 1 l 72 0 z "},"§":{"ha":807,"x_min":85,"x_max":719,"o":"m 311 531 q 276 485 290 513 q 261 433 261 457 q 282 367 261 393 q 358 318 303 342 l 494 258 q 528 304 514 276 q 543 356 543 332 q 522 420 543 394 q 446 471 501 446 l 311 531 m 604 200 q 672 133 646 175 q 699 38 699 90 q 602 -137 699 -78 q 354 -197 506 -197 q 222 -185 296 -197 q 113 -160 149 -172 l 124 -7 q 233 -31 171 -19 q 350 -43 294 -43 q 449 -26 407 -43 q 492 35 492 -10 q 458 92 492 69 q 371 133 424 115 l 263 178 q 130 264 175 210 q 85 389 85 318 q 110 493 85 444 q 200 588 135 542 q 133 655 160 613 q 106 750 106 697 q 196 925 106 865 q 428 985 286 985 q 550 972 481 985 q 653 947 619 960 l 640 794 q 636 788 640 789 q 631 792 632 788 q 539 819 594 807 q 436 831 483 831 q 349 814 386 831 q 313 753 313 797 q 347 695 313 718 q 435 654 381 672 l 543 610 q 674 524 629 578 q 719 399 719 469 q 695 294 719 343 q 604 200 671 246 z "},"•":{"ha":685,"x_min":101,"x_max":582,"o":"m 342 724 q 512 653 442 724 q 582 483 582 583 q 512 313 582 383 q 342 243 442 243 q 172 313 242 243 q 101 483 101 383 q 172 653 101 583 q 342 724 242 724 z "},"¶":{"ha":857,"x_min":14,"x_max":774,"o":"m 769 -171 l 769 -179 l 614 -179 l 614 850 l 475 850 l 475 -179 l 319 -179 l 319 478 q 86 546 158 483 q 14 719 14 608 q 92 908 14 846 q 319 971 171 971 l 774 971 l 774 963 l 769 -171 z "},"ß":{"ha":886,"x_min":89,"x_max":838,"o":"m 307 0 l 89 0 l 89 669 q 185 964 89 874 q 447 1054 282 1054 q 702 981 610 1054 q 794 779 794 908 q 753 638 794 700 q 610 544 711 575 q 780 463 722 529 q 838 290 838 396 q 751 76 838 160 q 499 -8 664 -8 q 425 -4 458 -8 q 378 3 392 0 l 383 163 q 424 158 399 161 q 475 154 449 154 q 583 199 549 154 q 617 318 617 243 q 573 425 617 385 q 450 465 529 465 l 413 465 l 413 622 l 439 622 q 530 656 486 622 q 574 763 574 690 q 538 868 574 836 q 450 900 503 900 q 349 855 390 900 q 307 699 307 810 l 307 0 z "},"®":{"ha":1107,"x_min":51,"x_max":1053,"o":"m 476 539 l 569 539 q 639 558 619 539 q 658 606 658 576 q 633 649 658 635 q 567 663 608 663 l 476 663 l 476 539 m 551 986 q 906 839 760 986 q 1053 485 1053 692 q 906 131 1053 278 q 553 -17 760 -17 q 198 131 344 -17 q 51 485 51 278 q 198 839 51 692 q 551 986 344 986 m 553 865 q 304 753 407 865 q 201 485 201 642 q 304 215 201 326 q 551 103 407 103 q 800 215 697 103 q 903 483 903 326 q 800 753 903 642 q 553 865 697 865 m 476 211 l 351 211 l 351 761 l 578 761 q 738 719 692 761 q 783 610 783 676 q 750 498 783 540 q 632 451 717 456 l 772 217 l 646 211 q 582 329 613 271 q 517 443 551 388 l 476 443 l 476 211 z "},"©":{"ha":1107,"x_min":51,"x_max":1053,"o":"m 551 986 q 906 839 760 986 q 1053 485 1053 692 q 906 131 1053 278 q 553 -17 760 -17 q 198 131 344 -17 q 51 485 51 278 q 198 839 51 692 q 551 986 344 986 m 553 865 q 304 753 407 865 q 201 485 201 642 q 304 215 201 326 q 551 103 407 103 q 800 215 697 103 q 903 483 903 326 q 800 753 903 642 q 553 865 697 865 m 803 569 l 681 568 q 642 633 671 610 q 568 656 613 656 q 470 608 503 656 q 438 488 438 561 q 471 365 438 415 q 567 315 504 315 q 641 337 610 315 q 681 404 672 358 l 758 403 l 804 403 q 723 244 790 294 q 567 194 656 194 q 370 275 449 194 q 292 485 292 356 q 366 695 292 614 q 571 776 440 776 q 724 726 661 776 q 803 569 788 675 z "},"™":{"ha":1389,"x_min":64,"x_max":1324,"o":"m 533 854 l 513 854 l 472 853 l 371 853 l 371 394 l 226 394 l 226 853 l 126 853 l 85 854 l 64 854 l 64 968 l 533 968 l 533 854 m 1324 968 l 1324 394 l 1179 394 l 1179 790 l 1046 394 l 931 394 l 797 790 l 797 394 l 654 394 l 654 968 l 863 968 l 989 621 l 1115 968 l 1324 968 z "},"´":{"ha":426,"x_min":93,"x_max":422,"o":"m 93 808 l 196 1010 l 422 1010 l 236 808 l 93 808 z "},"¨":{"ha":426,"x_min":-28,"x_max":456,"o":"m 63 1010 q 154 1008 153 1010 q 156 914 156 1007 q 154 819 156 821 q 64 818 153 818 q -27 819 -26 818 q -28 914 -28 821 q -27 1008 -28 1007 q 63 1010 -26 1010 m 363 1010 q 454 1008 453 1010 q 456 914 456 1007 q 454 819 456 821 q 364 818 453 818 q 273 819 274 818 q 272 914 272 821 q 273 1008 272 1007 q 363 1010 274 1010 z "},"≠":{"ha":832,"x_min":64,"x_max":768,"o":"m 64 122 l 64 283 l 306 283 l 365 436 l 64 436 l 64 597 l 428 597 l 474 717 l 635 717 l 589 597 l 768 597 l 768 436 l 526 436 l 467 283 l 768 283 l 768 122 l 404 122 l 358 3 l 197 3 l 243 122 l 64 122 z "},"Æ":{"ha":1358,"x_min":-1,"x_max":1296,"o":"m 661 806 l 449 392 l 682 392 l 667 806 l 661 806 m 688 222 l 358 222 l 244 0 l -1 0 l 6 4 l 524 969 l 1285 968 l 1285 801 l 893 801 l 904 581 l 1256 581 l 1256 414 l 911 414 l 922 167 l 1296 167 l 1296 0 l 697 0 l 688 222 z "},"Ø":{"ha":1088,"x_min":58,"x_max":1035,"o":"m 767 665 l 381 222 q 547 157 440 157 q 733 245 667 157 q 800 483 800 333 q 767 665 800 599 m 321 314 l 706 754 q 547 811 649 811 q 360 723 428 811 q 293 483 293 635 q 321 314 293 378 m 935 1017 l 1013 946 l 919 839 q 1035 483 1035 714 q 908 115 1035 246 q 547 -17 781 -17 q 243 65 351 -17 l 142 -51 q 101 -13 131 -37 q 64 19 72 11 l 167 136 q 58 483 58 260 q 186 853 58 722 q 547 985 314 985 q 840 908 738 985 l 935 1017 z "},"∞":{"ha":990,"x_min":35,"x_max":957,"o":"m 106 367 q 140 276 106 310 q 232 243 174 243 q 345 280 293 243 q 443 367 397 317 q 345 453 397 417 q 232 490 293 490 q 140 451 174 490 q 106 367 106 411 m 496 318 q 336 197 394 222 q 232 172 278 172 q 97 227 158 172 q 35 367 35 282 q 97 506 35 451 q 232 561 158 561 q 344 535 290 561 q 496 415 397 508 q 648 535 594 508 q 760 561 701 561 q 895 506 833 561 q 957 367 957 451 q 895 227 957 282 q 760 172 833 172 q 656 197 714 172 q 496 318 597 222 m 886 367 q 852 451 886 411 q 760 490 818 490 q 647 453 699 490 q 549 367 594 417 q 647 280 594 317 q 760 243 699 243 q 852 276 818 243 q 886 367 886 310 z "},"±":{"ha":832,"x_min":65,"x_max":769,"o":"m 336 542 l 336 715 l 499 715 l 499 542 l 769 542 l 769 379 l 499 379 l 499 207 l 336 207 l 336 379 l 65 379 l 65 542 l 336 542 m 65 0 l 65 163 l 769 163 l 769 0 l 65 0 z "},"≤":{"ha":832,"x_min":65,"x_max":769,"o":"m 65 149 l 768 149 l 768 0 l 65 0 l 65 149 m 261 515 l 768 301 l 769 146 l 65 442 l 65 589 l 769 885 l 768 729 l 261 515 z "},"≥":{"ha":832,"x_min":65,"x_max":769,"o":"m 769 149 l 769 0 l 67 0 l 67 149 l 769 149 m 67 301 l 574 515 l 67 729 l 65 885 l 769 589 l 769 442 l 65 146 l 67 301 z "},"¥":{"ha":810,"x_min":-7,"x_max":815,"o":"m 89 311 l 296 311 l 296 378 l 286 397 l 89 397 l 89 513 l 226 513 l -7 971 l 219 971 l 407 561 l 594 971 l 815 971 l 582 513 l 721 513 l 721 397 l 524 397 l 515 381 l 515 311 l 721 311 l 721 196 l 515 196 l 515 0 l 296 0 l 296 196 l 89 196 l 89 311 z "},"µ":{"ha":888,"x_min":88,"x_max":800,"o":"m 800 688 l 800 0 l 600 0 l 600 122 q 520 26 576 65 q 388 -17 464 -14 q 340 -9 361 -17 q 307 11 318 -1 l 307 -289 l 88 -289 l 88 688 l 303 688 l 303 331 q 332 201 303 243 q 428 158 361 158 q 541 213 500 158 q 585 372 582 268 l 585 688 l 800 688 z "},"∂":{"ha":686,"x_min":36,"x_max":642,"o":"m 144 926 l 90 996 q 169 1026 124 1011 q 272 1040 214 1040 q 533 903 425 1040 q 642 546 642 765 q 556 156 642 339 q 299 -29 469 -28 q 121 41 206 -29 q 36 244 36 111 q 117 466 36 374 q 311 558 199 558 q 415 537 369 558 q 519 464 460 515 q 531 545 528 506 q 535 618 535 585 q 474 874 535 775 q 303 972 414 972 q 217 958 254 972 q 144 926 181 944 m 508 415 q 449 477 485 450 q 358 504 414 504 q 219 423 283 504 q 156 206 156 342 q 185 69 156 126 q 281 13 214 13 q 428 111 372 13 q 508 415 483 210 z "},"∑":{"ha":990,"x_min":19,"x_max":965,"o":"m 857 1035 l 865 814 l 838 814 q 783 931 818 890 q 625 972 747 972 l 260 972 l 639 475 l 231 4 l 746 4 q 859 33 824 4 q 933 161 894 63 l 965 161 q 929 1 943 71 q 906 -150 915 -69 q 852 -140 881 -146 q 799 -135 824 -135 l 100 -135 l 19 -139 l 504 414 l 22 1044 l 167 1035 l 857 1035 z "},"∏":{"ha":1143,"x_min":35,"x_max":1115,"o":"m 981 874 l 981 4 q 1007 -81 981 -54 q 1115 -108 1033 -108 l 1115 -140 l 690 -140 l 690 -108 q 797 -81 771 -108 q 824 4 824 -54 l 824 967 l 326 967 l 326 4 q 353 -80 326 -54 q 461 -108 379 -106 l 461 -140 l 35 -140 l 35 -108 q 144 -81 118 -108 q 169 4 169 -54 l 169 874 q 135 978 169 946 q 38 1011 101 1011 l 38 1043 l 1111 1043 l 1111 1011 q 1014 978 1047 1011 q 981 874 981 946 z "},"π":{"ha":763,"x_min":14,"x_max":736,"o":"m 465 557 l 308 557 l 244 69 q 215 3 236 32 q 154 -26 194 -26 q 101 -3 124 -26 q 79 49 79 19 q 90 87 79 69 q 114 119 100 104 q 162 179 144 150 q 183 239 179 208 l 224 557 l 158 557 q 94 538 124 557 q 38 469 65 519 l 14 469 q 85 615 40 554 q 207 676 129 676 l 725 676 l 725 557 l 550 557 q 538 385 542 488 q 533 231 533 283 q 564 135 533 164 q 624 106 594 106 q 681 133 657 106 q 706 210 706 161 l 736 210 q 685 40 733 103 q 571 -22 636 -22 q 476 38 515 -22 q 438 211 438 99 q 444 355 438 278 q 465 557 451 432 z "},"∫":{"ha":381,"x_min":3,"x_max":404,"o":"m 267 554 q 231 19 267 188 q 86 -149 196 -149 q 31 -126 60 -149 q 3 -65 3 -103 q 22 -22 3 -40 q 64 -4 42 -4 q 107 -27 89 -4 q 139 -50 125 -50 q 165 -15 154 -50 q 175 103 175 19 q 171 235 175 149 q 167 671 167 321 q 192 1119 167 967 q 313 1272 217 1272 q 374 1253 344 1272 q 404 1194 404 1233 q 385 1153 404 1174 q 333 1133 367 1133 q 294 1150 310 1133 q 263 1167 279 1167 q 243 1157 249 1167 q 238 1136 238 1147 q 252 918 238 1088 q 267 554 267 749 z "},"ª":{"ha":807,"x_min":32,"x_max":494,"o":"m 350 722 l 350 732 l 285 729 q 198 713 226 728 q 169 671 169 699 q 188 636 169 649 q 243 624 207 624 q 320 655 290 624 q 350 722 350 686 m 356 613 q 290 552 329 571 q 203 533 250 533 q 78 569 124 533 q 32 660 32 604 q 92 764 32 728 q 267 801 153 800 l 350 800 q 320 858 350 842 q 240 875 290 875 q 159 864 200 875 q 90 833 118 853 l 88 933 q 166 956 115 946 q 265 965 217 965 q 431 922 378 965 q 485 786 485 879 l 485 667 q 488 581 485 617 q 494 546 492 546 l 364 543 l 356 613 z "},"º":{"ha":886,"x_min":24,"x_max":554,"o":"m 554 749 q 481 592 554 651 q 289 533 407 533 q 97 592 169 533 q 24 749 24 651 q 97 906 24 847 q 289 965 169 965 q 481 906 407 965 q 554 749 554 847 m 401 749 q 372 839 401 807 q 289 871 343 871 q 204 839 233 871 q 175 749 175 807 q 205 660 175 693 q 289 628 235 628 q 372 660 343 628 q 401 749 401 693 z "},"Ω":{"ha":1067,"x_min":47,"x_max":1022,"o":"m 435 211 l 457 0 l 47 0 l 47 225 l 68 225 q 97 157 81 174 q 160 140 113 140 l 379 140 l 376 179 q 157 310 239 211 q 75 554 75 410 q 211 849 75 742 q 535 956 347 956 q 858 850 721 956 q 994 554 994 744 q 916 320 994 428 q 693 179 838 213 l 690 140 l 910 140 q 974 158 958 140 q 1001 225 989 175 l 1022 225 l 1022 0 l 613 0 l 635 211 q 772 320 713 236 q 832 558 832 404 q 751 821 832 731 q 535 911 671 911 q 319 823 400 911 q 238 558 238 735 q 294 319 238 404 q 435 211 351 235 z "},"æ":{"ha":1264,"x_min":40,"x_max":1219,"o":"m 515 299 l 515 315 q 481 311 506 311 q 418 310 457 311 q 288 284 331 308 q 246 213 246 260 q 274 155 246 176 q 356 133 301 133 q 472 186 428 133 q 515 299 515 239 m 632 614 q 739 681 671 657 q 876 704 807 704 q 1137 602 1054 704 q 1219 297 1219 500 l 1217 281 l 726 281 q 772 186 742 217 q 936 133 826 133 q 1074 152 1008 133 q 1164 185 1139 171 l 1164 22 q 1047 -6 1111 4 q 903 -17 983 -17 q 721 17 801 -17 q 597 131 640 51 q 492 26 563 68 q 315 -17 422 -17 q 114 42 188 -17 q 40 194 40 101 q 130 369 40 308 q 390 431 219 429 l 515 429 q 472 526 515 499 q 350 554 428 554 q 230 535 290 554 q 126 483 169 515 l 122 650 q 238 688 164 672 q 383 704 313 704 q 544 678 482 704 q 632 614 606 653 m 725 413 l 1004 413 l 1021 411 q 982 522 1019 485 q 876 558 944 558 q 760 501 801 558 q 725 413 736 469 z "},"ø":{"ha":886,"x_min":47,"x_max":839,"o":"m 756 749 l 825 685 l 740 594 q 839 343 839 500 q 730 82 839 181 q 443 -17 621 -17 q 219 36 306 -17 l 129 -61 l 60 1 l 144 93 q 47 343 47 188 q 156 606 47 507 q 443 704 265 704 q 665 651 581 704 l 756 749 m 597 440 l 344 169 q 443 142 379 142 q 569 195 525 142 q 613 343 613 249 q 597 440 613 406 m 289 247 l 540 518 q 443 546 507 546 q 317 492 361 546 q 274 343 274 439 q 289 247 274 282 z "},"¿":{"ha":724,"x_min":46,"x_max":644,"o":"m 369 -268 q 127 -199 208 -268 q 46 -31 46 -131 q 86 103 46 42 q 165 199 126 164 q 249 308 226 264 q 274 390 271 351 l 275 410 l 458 410 l 460 381 q 431 271 457 326 q 351 156 404 215 q 297 87 322 129 q 271 0 271 44 q 314 -76 271 -47 q 432 -104 357 -104 q 546 -86 488 -104 q 638 -53 604 -68 l 644 -226 q 531 -253 603 -239 q 369 -268 458 -268 m 367 506 q 258 507 260 506 q 257 611 257 508 q 258 717 257 715 q 365 718 260 718 q 474 717 472 718 q 475 613 475 715 q 474 507 475 508 q 367 506 472 506 z "},"¡":{"ha":569,"x_min":167,"x_max":400,"o":"m 285 504 q 176 506 178 504 q 175 610 175 507 q 176 715 175 714 q 283 717 178 717 q 392 715 390 717 q 393 611 393 714 q 392 506 393 507 q 285 504 390 504 m 167 -251 l 175 -49 l 200 408 l 368 408 l 393 -43 l 400 -251 l 167 -251 z "},"¬":{"ha":832,"x_min":65,"x_max":769,"o":"m 608 150 l 608 429 l 65 429 l 65 590 l 769 590 l 769 150 l 608 150 z "},"√":{"ha":763,"x_min":14,"x_max":715,"o":"m 36 579 l 14 625 l 217 725 l 490 165 l 667 1274 l 715 1267 l 507 -53 l 169 644 l 36 579 z "},"ƒ":{"ha":810,"x_min":6,"x_max":776,"o":"m 628 988 q 718 978 676 988 q 776 963 760 969 l 749 801 q 713 820 735 813 q 667 828 690 828 q 608 801 629 828 q 571 683 588 774 l 547 582 l 701 582 l 690 451 l 519 451 l 433 18 q 327 -246 396 -185 q 154 -307 258 -307 q 64 -299 107 -307 q 6 -282 21 -290 l 33 -128 q 63 -141 42 -135 q 107 -147 85 -147 q 173 -114 153 -146 q 207 -1 193 -82 l 299 451 l 149 451 l 161 582 l 326 582 l 361 746 q 453 933 392 878 q 628 988 515 988 z "},"≈":{"ha":832,"x_min":71,"x_max":772,"o":"m 686 633 l 772 515 q 688 434 743 463 q 581 406 633 406 q 419 444 539 406 q 265 482 299 482 q 210 464 233 482 q 158 399 186 446 l 71 521 q 165 606 115 581 q 269 631 214 631 q 432 594 315 631 q 576 558 549 558 q 638 578 608 558 q 686 633 667 597 m 686 319 l 772 201 q 688 120 743 149 q 581 92 633 92 q 419 130 539 92 q 265 168 299 168 q 210 150 233 168 q 158 85 186 132 l 71 207 q 165 292 115 267 q 269 317 214 317 q 432 281 315 317 q 576 244 549 244 q 638 264 608 244 q 686 319 667 283 z "},"∆":{"ha":850,"x_min":8,"x_max":844,"o":"m 453 956 l 844 0 l 8 0 l 453 956 m 403 718 l 100 68 l 672 68 l 403 718 z "},"«":{"ha":813,"x_min":61,"x_max":756,"o":"m 589 371 l 742 85 l 546 85 l 386 371 l 560 657 l 756 657 l 589 371 m 264 371 l 417 85 l 221 85 l 61 371 l 235 657 l 431 657 l 264 371 z "},"»":{"ha":813,"x_min":54,"x_max":749,"o":"m 546 371 l 379 657 l 575 657 l 749 371 l 744 364 l 589 85 l 393 85 l 546 371 m 221 371 l 54 657 l 250 657 l 424 371 l 419 364 l 264 85 l 68 85 l 221 371 z "},"…":{"ha":1389,"x_min":124,"x_max":1265,"o":"m 694 213 q 801 211 800 213 q 803 106 803 210 q 801 0 803 1 q 694 -1 800 -1 q 588 0 589 -1 q 586 106 586 1 q 588 211 586 210 q 694 213 589 213 m 1157 213 q 1264 211 1263 213 q 1265 106 1265 210 q 1264 0 1265 1 q 1157 -1 1263 -1 q 1050 0 1051 -1 q 1049 106 1049 1 q 1050 211 1049 210 q 1157 213 1051 213 m 232 213 q 339 211 338 213 q 340 106 340 210 q 339 0 340 1 q 232 -1 338 -1 q 125 0 126 -1 q 124 106 124 1 q 125 211 124 210 q 232 213 126 213 z "}," ":{"ha":810,"x_min":0,"x_max":0,"o":""},"À":{"ha":1046,"x_min":11,"x_max":1036,"o":"m 650 381 l 519 774 l 383 381 l 650 381 m 1036 0 l 786 0 l 708 213 l 324 213 l 244 0 l 11 0 l 386 968 l 654 968 l 1036 0 m 631 1026 l 489 1026 l 301 1228 l 528 1228 l 631 1026 z "},"Ã":{"ha":1046,"x_min":11,"x_max":1036,"o":"m 650 381 l 519 774 l 383 381 l 650 381 m 1036 0 l 786 0 l 708 213 l 324 213 l 244 0 l 11 0 l 386 968 l 654 968 l 1036 0 m 783 1228 q 735 1100 778 1156 q 624 1044 693 1044 q 514 1070 576 1044 q 414 1096 451 1096 q 370 1079 388 1096 q 351 1038 353 1063 l 263 1038 q 310 1165 268 1110 q 422 1221 353 1221 q 532 1195 469 1221 q 632 1169 594 1169 q 676 1186 658 1169 q 694 1228 693 1203 l 783 1228 z "},"Õ":{"ha":1088,"x_min":60,"x_max":1025,"o":"m 790 483 q 725 723 790 635 q 543 811 660 811 q 360 723 425 811 q 294 483 294 635 q 360 245 294 333 q 543 157 425 157 q 725 245 660 157 q 790 483 790 333 m 1025 483 q 897 117 1025 250 q 543 -17 769 -17 q 188 117 315 -17 q 60 483 60 250 q 185 853 60 722 q 543 985 311 985 q 899 853 774 985 q 1025 483 1025 722 m 804 1228 q 756 1100 799 1156 q 644 1044 714 1044 q 535 1070 597 1044 q 435 1096 472 1096 q 391 1079 408 1096 q 372 1038 374 1063 l 283 1038 q 331 1165 289 1110 q 443 1221 374 1221 q 553 1195 490 1221 q 653 1169 615 1169 q 697 1186 679 1169 q 715 1228 714 1203 l 804 1228 z "},"Œ":{"ha":1360,"x_min":44,"x_max":1308,"o":"m 558 804 q 351 721 422 804 q 279 482 279 638 q 356 249 279 335 q 568 164 433 164 q 651 167 615 164 q 686 174 686 171 l 686 794 q 649 801 686 799 q 558 804 611 804 m 835 0 l 556 -8 q 174 115 304 -8 q 44 483 44 239 q 180 849 44 722 q 563 976 315 976 l 839 968 l 1300 968 l 1300 801 l 915 801 l 915 581 l 1272 581 l 1272 414 l 915 414 l 915 167 l 1308 167 l 1308 0 l 835 0 z "},"œ":{"ha":1344,"x_min":43,"x_max":1300,"o":"m 603 343 q 560 492 603 439 q 436 546 517 546 q 312 492 354 546 q 269 343 269 439 q 313 196 269 250 q 436 142 356 142 q 559 196 515 142 q 603 343 603 250 m 707 100 q 592 13 665 43 q 418 -17 519 -17 q 145 82 247 -17 q 43 343 43 181 q 146 606 43 507 q 421 704 249 704 q 593 674 526 704 q 700 588 660 644 q 800 670 736 636 q 958 704 864 704 q 1218 602 1136 704 q 1300 297 1300 500 l 1297 281 l 817 281 q 861 186 832 217 q 1022 133 913 133 q 1156 152 1092 133 q 1244 185 1221 171 l 1244 22 q 1131 -6 1193 4 q 990 -17 1069 -17 q 822 11 899 -17 q 707 100 746 39 m 815 413 l 1082 413 l 1101 411 q 1064 522 1100 485 q 963 558 1028 558 q 849 501 889 558 q 815 413 826 469 z "},"–":{"ha":694,"x_min":0,"x_max":697,"o":"m 0 446 l 697 446 l 697 293 l 0 293 l 0 446 z "},"—":{"ha":1389,"x_min":0,"x_max":1392,"o":"m 0 446 l 1392 446 l 1392 293 l 0 293 l 0 446 z "},"“":{"ha":761,"x_min":74,"x_max":683,"o":"m 588 604 q 401 606 425 604 q 378 611 378 607 l 503 956 l 683 969 l 594 614 l 597 608 q 588 604 597 607 m 283 604 q 97 606 121 604 q 74 611 74 607 l 199 956 l 379 969 l 290 614 l 293 608 q 283 604 293 607 z "},"”":{"ha":761,"x_min":75,"x_max":686,"o":"m 472 969 q 663 967 639 969 q 686 961 686 964 l 547 603 l 379 606 l 382 614 l 469 958 l 465 964 l 472 969 m 168 969 q 358 967 335 969 q 382 961 382 964 l 243 603 l 75 606 l 78 614 l 165 958 l 161 964 l 168 969 z "},"‘":{"ha":422,"x_min":57,"x_max":363,"o":"m 267 604 q 81 606 104 604 q 57 611 57 607 l 182 956 l 363 969 l 274 614 l 276 608 q 267 604 276 607 z "},"’":{"ha":422,"x_min":58,"x_max":365,"o":"m 151 969 q 342 967 318 969 q 365 961 365 964 l 226 603 l 58 606 l 61 614 l 149 958 l 144 964 l 151 969 z "},"÷":{"ha":832,"x_min":64,"x_max":768,"o":"m 418 739 q 517 738 517 739 q 518 640 518 736 q 517 543 518 544 q 419 542 517 542 q 319 543 321 542 q 318 640 318 544 q 319 738 318 736 q 418 739 321 739 m 64 279 l 64 440 l 768 440 l 768 279 l 64 279 m 418 174 q 517 172 517 174 q 518 75 518 171 q 517 -22 518 -21 q 419 -24 517 -24 q 319 -22 321 -24 q 318 75 318 -21 q 319 172 318 171 q 418 174 321 174 z "},"◊":{"ha":686,"x_min":25,"x_max":647,"o":"m 378 0 l 294 0 l 25 524 l 294 1035 l 378 1035 l 647 524 l 378 0 m 564 524 l 336 960 l 108 524 l 336 75 l 564 524 z "},"ÿ":{"ha":806,"x_min":14,"x_max":794,"o":"m 574 688 l 794 688 l 493 -57 q 384 -247 450 -186 q 214 -308 318 -308 q 113 -301 151 -308 q 63 -292 74 -294 l 76 -135 l 167 -149 q 247 -122 215 -149 q 286 -44 278 -94 l 294 -26 l 14 688 l 250 688 l 415 217 l 574 688 m 253 1010 q 344 1008 343 1010 q 346 914 346 1007 q 344 819 346 821 q 254 818 343 818 q 163 819 164 818 q 163 914 163 821 q 163 1008 163 1007 q 253 1010 164 1010 m 553 1010 q 644 1008 643 1010 q 646 914 646 1007 q 644 819 646 821 q 554 818 643 818 q 463 819 464 818 q 463 914 463 821 q 463 1008 463 1007 q 553 1010 464 1010 z "},"Ÿ":{"ha":967,"x_min":14,"x_max":951,"o":"m 699 968 l 951 968 l 599 378 l 599 0 l 371 0 l 371 376 l 14 968 l 279 968 l 488 575 l 699 968 m 338 1228 q 429 1226 428 1228 q 431 1132 431 1225 q 429 1038 431 1039 q 339 1036 428 1036 q 248 1038 249 1036 q 247 1132 247 1039 q 248 1226 247 1225 q 338 1228 249 1228 m 638 1228 q 729 1226 728 1228 q 731 1132 731 1225 q 729 1038 731 1039 q 639 1036 728 1036 q 548 1038 549 1036 q 547 1132 547 1039 q 548 1226 547 1225 q 638 1228 549 1228 z "},"⁄":{"ha":236,"x_min":-231,"x_max":465,"o":"m -231 -31 l 333 999 l 465 999 l -97 -31 l -231 -31 z "},"¤":{"ha":810,"x_min":46,"x_max":765,"o":"m 406 665 q 278 613 331 665 q 225 485 225 560 q 278 357 225 410 q 406 304 331 304 q 533 357 481 304 q 586 485 586 410 q 533 613 586 560 q 406 665 481 665 m 749 485 q 733 383 749 431 q 688 293 718 335 l 765 211 l 679 125 l 597 203 q 508 157 556 172 q 406 142 460 142 q 303 156 350 142 q 214 203 256 171 l 132 125 l 46 211 l 124 293 q 78 383 93 335 q 63 485 63 431 q 77 587 63 539 q 124 676 92 635 l 46 758 l 132 844 l 214 767 q 303 813 256 797 q 406 828 350 828 q 508 813 460 828 q 597 767 556 799 l 679 844 l 765 758 l 688 676 q 733 587 718 635 q 749 485 749 539 z "},"‹":{"ha":463,"x_min":49,"x_max":418,"o":"m 251 371 l 404 85 l 208 85 l 49 371 l 222 657 l 418 657 l 251 371 z "},"›":{"ha":463,"x_min":42,"x_max":411,"o":"m 208 371 l 42 657 l 238 657 l 411 371 l 407 364 l 251 85 l 56 85 l 208 371 z "},"":{"ha":997,"x_min":21,"x_max":894,"o":"m 376 0 l 161 0 l 161 533 l 21 533 l 21 688 l 164 688 l 164 775 q 228 985 164 917 q 422 1054 292 1054 q 496 1049 456 1054 q 560 1039 536 1044 l 544 878 q 510 890 526 885 q 467 894 493 894 q 398 863 418 894 q 376 778 378 831 l 376 688 l 544 688 l 544 533 l 376 533 l 376 0 m 675 901 q 676 992 675 990 q 785 993 678 993 q 893 992 892 993 q 894 901 894 990 q 893 811 894 813 q 785 810 892 810 q 676 811 678 810 q 675 901 675 813 m 893 0 l 676 0 l 676 688 l 893 688 l 893 0 z "},"":{"ha":997,"x_min":22,"x_max":893,"o":"m 379 0 l 164 0 l 164 533 l 22 533 l 22 688 l 167 688 l 167 775 q 233 985 167 917 q 435 1054 299 1054 q 510 1049 478 1054 q 561 1040 543 1044 l 549 876 q 515 890 529 885 q 472 894 501 894 q 401 863 422 894 q 379 779 381 832 l 379 688 l 547 688 l 547 533 l 379 533 l 379 0 m 678 1038 l 893 1038 l 893 0 l 678 0 l 678 1038 z "},"‡":{"ha":806,"x_min":76,"x_max":731,"o":"m 504 967 l 501 771 l 731 774 l 731 619 l 501 622 l 504 464 l 501 333 l 731 336 l 731 182 l 501 185 l 504 -14 l 301 -14 l 304 185 l 76 182 l 76 336 l 304 333 l 301 464 l 304 622 l 76 619 l 76 774 l 304 771 l 301 967 l 504 967 z "},"∙":{"ha":404,"x_min":93,"x_max":310,"o":"m 201 500 q 308 499 307 500 q 310 393 310 497 q 308 288 310 289 q 201 286 307 286 q 94 288 96 286 q 93 393 93 289 q 94 499 93 497 q 201 500 96 500 z "},"‚":{"ha":422,"x_min":60,"x_max":367,"o":"m 153 210 q 343 207 319 210 q 367 201 367 204 l 228 -157 l 60 -154 l 63 -146 l 150 199 l 146 204 l 153 210 z "},"„":{"ha":761,"x_min":93,"x_max":704,"o":"m 490 210 q 681 207 657 210 q 704 201 704 204 l 565 -157 l 397 -154 l 400 -146 l 488 199 l 483 204 l 490 210 m 186 210 q 376 207 353 210 q 400 201 400 204 l 261 -157 l 93 -154 l 96 -146 l 183 199 l 179 204 l 186 210 z "},"‰":{"ha":1394,"x_min":7,"x_max":1386,"o":"m 690 999 l 811 999 l 239 -29 l 119 -29 l 690 999 m 215 985 q 370 920 318 985 q 422 735 422 856 q 371 542 422 608 q 214 476 319 476 q 58 541 110 476 q 7 731 7 606 q 60 919 7 853 q 215 985 113 985 m 213 871 q 163 835 176 871 q 150 731 150 799 q 163 625 150 660 q 215 590 175 590 q 267 626 254 590 q 281 733 281 663 q 266 836 281 801 q 213 871 251 871 m 708 492 q 863 427 811 492 q 915 242 915 363 q 864 49 915 115 q 708 -17 813 -17 q 552 48 603 -17 q 501 238 501 113 q 554 426 501 360 q 708 492 607 492 m 706 378 q 656 342 669 378 q 643 238 643 306 q 656 132 643 167 q 708 97 669 97 q 760 133 747 97 q 774 240 774 169 q 760 343 774 308 q 706 378 746 378 m 1179 492 q 1334 427 1282 492 q 1386 242 1386 363 q 1335 49 1386 115 q 1179 -17 1283 -17 q 1023 48 1074 -17 q 972 238 972 113 q 1025 426 972 360 q 1179 492 1078 492 m 1176 378 q 1127 342 1140 378 q 1114 238 1114 306 q 1127 132 1114 167 q 1179 97 1140 97 q 1231 133 1218 97 q 1244 240 1244 169 q 1231 343 1244 308 q 1176 378 1217 378 z "},"Â":{"ha":1046,"x_min":11,"x_max":1036,"o":"m 650 381 l 519 774 l 383 381 l 650 381 m 1036 0 l 786 0 l 708 213 l 324 213 l 244 0 l 11 0 l 386 968 l 654 968 l 1036 0 m 279 1025 l 432 1229 l 613 1229 l 767 1025 l 621 1025 l 522 1138 l 425 1025 l 279 1025 z "},"Ê":{"ha":815,"x_min":99,"x_max":740,"o":"m 740 0 l 99 0 l 99 968 l 732 968 l 732 801 l 326 801 l 326 581 l 703 581 l 703 414 l 326 414 l 326 168 l 740 168 l 740 0 m 164 1025 l 317 1229 l 497 1229 l 651 1025 l 506 1025 l 407 1138 l 310 1025 l 164 1025 z "},"Á":{"ha":1046,"x_min":11,"x_max":1036,"o":"m 650 381 l 519 774 l 383 381 l 650 381 m 1036 0 l 786 0 l 708 213 l 324 213 l 244 0 l 11 0 l 386 968 l 654 968 l 1036 0 m 411 1026 l 514 1228 l 740 1228 l 554 1026 l 411 1026 z "},"Ë":{"ha":815,"x_min":99,"x_max":740,"o":"m 740 0 l 99 0 l 99 968 l 732 968 l 732 801 l 326 801 l 326 581 l 703 581 l 703 414 l 326 414 l 326 168 l 740 168 l 740 0 m 257 1228 q 349 1226 347 1228 q 350 1132 350 1225 q 349 1038 350 1039 q 258 1036 347 1036 q 167 1038 168 1036 q 167 1132 167 1039 q 167 1226 167 1225 q 257 1228 168 1228 m 557 1228 q 649 1226 647 1228 q 650 1132 650 1225 q 649 1038 650 1039 q 558 1036 647 1036 q 467 1038 468 1036 q 467 1132 467 1039 q 467 1226 467 1225 q 557 1228 468 1228 z "},"È":{"ha":815,"x_min":99,"x_max":740,"o":"m 740 0 l 99 0 l 99 968 l 732 968 l 732 801 l 326 801 l 326 581 l 703 581 l 703 414 l 326 414 l 326 168 l 740 168 l 740 0 m 515 1026 l 374 1026 l 186 1228 l 413 1228 l 515 1026 z "},"Í":{"ha":428,"x_min":101,"x_max":431,"o":"m 329 0 l 101 0 l 101 968 l 329 968 l 329 0 m 101 1026 l 204 1228 l 431 1228 l 244 1026 l 101 1026 z "},"Î":{"ha":428,"x_min":-31,"x_max":457,"o":"m 329 0 l 101 0 l 101 968 l 329 968 l 329 0 m -31 1025 l 122 1229 l 303 1229 l 457 1025 l 311 1025 l 213 1138 l 115 1025 l -31 1025 z "},"Ï":{"ha":428,"x_min":-28,"x_max":456,"o":"m 329 0 l 101 0 l 101 968 l 329 968 l 329 0 m 63 1228 q 154 1226 153 1228 q 156 1132 156 1225 q 154 1038 156 1039 q 64 1036 153 1036 q -27 1038 -26 1036 q -28 1132 -28 1039 q -27 1226 -28 1225 q 63 1228 -26 1228 m 363 1228 q 454 1226 453 1228 q 456 1132 456 1225 q 454 1038 456 1039 q 364 1036 453 1036 q 273 1038 274 1036 q 272 1132 272 1039 q 273 1226 272 1225 q 363 1228 274 1228 z "},"Ì":{"ha":428,"x_min":-8,"x_max":329,"o":"m 329 0 l 101 0 l 101 968 l 329 968 l 329 0 m 321 1026 l 179 1026 l -8 1228 l 218 1228 l 321 1026 z "},"Ó":{"ha":1088,"x_min":60,"x_max":1025,"o":"m 790 483 q 725 723 790 635 q 543 811 660 811 q 360 723 425 811 q 294 483 294 635 q 360 245 294 333 q 543 157 425 157 q 725 245 660 157 q 790 483 790 333 m 1025 483 q 897 117 1025 250 q 543 -17 769 -17 q 188 117 315 -17 q 60 483 60 250 q 185 853 60 722 q 543 985 311 985 q 899 853 774 985 q 1025 483 1025 722 m 432 1026 l 535 1228 l 761 1228 l 575 1026 l 432 1026 z "},"Ô":{"ha":1088,"x_min":60,"x_max":1025,"o":"m 790 483 q 725 723 790 635 q 543 811 660 811 q 360 723 425 811 q 294 483 294 635 q 360 245 294 333 q 543 157 425 157 q 725 245 660 157 q 790 483 790 333 m 1025 483 q 897 117 1025 250 q 543 -17 769 -17 q 188 117 315 -17 q 60 483 60 250 q 185 853 60 722 q 543 985 311 985 q 899 853 774 985 q 1025 483 1025 722 m 300 1025 l 453 1229 l 633 1229 l 788 1025 l 642 1025 l 543 1138 l 446 1025 l 300 1025 z "},"":{"ha":1042,"x_min":44,"x_max":969,"o":"m 538 896 l 649 1119 q 877 985 785 1093 q 969 710 969 878 l 967 653 l 886 418 l 538 896 m 85 664 l 196 888 q 319 1035 236 968 q 508 1119 401 1103 l 397 893 l 49 417 l 44 478 q 55 576 44 529 q 85 664 65 624 m 615 371 l 319 371 l 467 574 l 615 371 m 761 175 q 613 79 689 103 q 467 56 538 56 q 314 82 388 56 q 175 174 240 108 l 283 324 l 650 324 l 761 175 m 876 371 q 844 286 863 325 q 788 201 826 247 l 467 633 l 150 200 q 92 281 115 239 q 57 369 69 324 l 447 900 l 558 1124 l 599 1124 l 488 900 l 876 371 m 940 665 q 860 953 940 851 q 669 1081 781 1054 l 574 888 q 786 763 686 858 q 886 497 886 668 l 940 665 z "},"Ò":{"ha":1088,"x_min":60,"x_max":1025,"o":"m 790 483 q 725 723 790 635 q 543 811 660 811 q 360 723 425 811 q 294 483 294 635 q 360 245 294 333 q 543 157 425 157 q 725 245 660 157 q 790 483 790 333 m 1025 483 q 897 117 1025 250 q 543 -17 769 -17 q 188 117 315 -17 q 60 483 60 250 q 185 853 60 722 q 543 985 311 985 q 899 853 774 985 q 1025 483 1025 722 m 651 1026 l 510 1026 l 322 1228 l 549 1228 l 651 1026 z "},"Ú":{"ha":1010,"x_min":92,"x_max":919,"o":"m 692 410 l 692 968 l 919 968 l 919 379 q 816 82 919 181 q 507 -17 713 -17 q 199 78 306 -17 q 92 358 92 174 l 92 968 l 319 968 l 319 401 q 365 219 319 282 q 506 157 411 157 q 647 222 601 157 q 692 410 692 286 m 393 1026 l 496 1228 l 722 1228 l 536 1026 l 393 1026 z "},"Û":{"ha":1010,"x_min":92,"x_max":919,"o":"m 692 410 l 692 968 l 919 968 l 919 379 q 816 82 919 181 q 507 -17 713 -17 q 199 78 306 -17 q 92 358 92 174 l 92 968 l 319 968 l 319 401 q 365 219 319 282 q 506 157 411 157 q 647 222 601 157 q 692 410 692 286 m 261 1025 l 414 1229 l 594 1229 l 749 1025 l 603 1025 l 504 1138 l 407 1025 l 261 1025 z "},"Ù":{"ha":1010,"x_min":92,"x_max":919,"o":"m 692 410 l 692 968 l 919 968 l 919 379 q 816 82 919 181 q 507 -17 713 -17 q 199 78 306 -17 q 92 358 92 174 l 92 968 l 319 968 l 319 401 q 365 219 319 282 q 506 157 411 157 q 647 222 601 157 q 692 410 692 286 m 613 1026 l 471 1026 l 283 1228 l 510 1228 l 613 1026 z "},"ı":{"ha":424,"x_min":103,"x_max":319,"o":"m 319 0 l 103 0 l 103 688 l 319 688 l 319 0 z "},"ˆ":{"ha":426,"x_min":-31,"x_max":457,"o":"m -31 807 l 122 1011 l 303 1011 l 457 807 l 311 807 l 213 919 l 115 807 l -31 807 z "},"˜":{"ha":426,"x_min":-46,"x_max":475,"o":"m 475 1010 q 427 882 469 938 q 315 826 385 826 q 206 852 268 826 q 106 878 143 878 q 62 861 79 878 q 43 819 44 844 l -46 819 q 2 947 -40 892 q 114 1003 44 1003 q 224 977 161 1003 q 324 951 286 951 q 367 968 350 951 q 386 1010 385 985 l 475 1010 z "},"¯":{"ha":426,"x_min":-18,"x_max":447,"o":"m -18 972 l 447 972 l 447 857 l -18 857 l -18 972 z "},"˘":{"ha":426,"x_min":-32,"x_max":460,"o":"m 214 796 q 51 847 121 796 q -32 1013 -19 897 l 65 1013 q 123 932 82 956 q 214 908 164 908 q 306 932 265 908 q 363 1013 346 956 l 460 1013 q 378 847 447 897 q 214 796 308 796 z "},"˙":{"ha":426,"x_min":122,"x_max":306,"o":"m 213 1001 q 304 1000 303 1001 q 306 906 306 999 q 304 811 306 813 q 214 810 303 810 q 123 811 124 810 q 122 906 122 813 q 123 1000 122 999 q 213 1001 124 1001 z "},"˚":{"ha":426,"x_min":63,"x_max":365,"o":"m 214 1092 q 321 1047 276 1092 q 365 940 365 1003 q 321 833 365 878 q 214 789 276 789 q 107 833 151 789 q 63 940 63 878 q 107 1047 63 1003 q 214 1092 151 1092 m 214 1011 q 164 990 185 1011 q 143 940 143 969 q 164 890 143 911 q 214 869 185 869 q 264 890 243 869 q 285 940 285 911 q 264 990 285 969 q 214 1011 243 1011 z "},"¸":{"ha":426,"x_min":93,"x_max":433,"o":"m 93 -276 l 117 -206 q 152 -220 122 -210 q 221 -231 182 -231 q 276 -219 257 -231 q 294 -185 294 -208 q 280 -149 294 -162 q 240 -136 265 -136 l 192 -146 l 157 -112 l 225 0 l 315 0 l 263 -83 l 326 -74 q 404 -103 375 -74 q 433 -182 433 -132 q 385 -274 433 -242 q 253 -306 336 -306 q 159 -296 200 -306 q 93 -276 118 -286 z "},"˝":{"ha":426,"x_min":-46,"x_max":592,"o":"m -46 808 l 57 1008 l 282 1008 l 97 808 l -46 808 m 264 808 l 365 1008 l 592 1008 l 407 808 l 264 808 z "},"˛":{"ha":426,"x_min":76,"x_max":399,"o":"m 238 0 l 321 0 q 243 -73 279 -28 q 207 -160 207 -118 q 225 -206 207 -190 q 267 -221 243 -221 q 304 -212 285 -221 q 347 -179 324 -203 l 399 -201 q 321 -284 364 -262 q 215 -306 278 -306 q 114 -275 151 -306 q 76 -182 76 -244 q 130 -75 76 -124 q 238 0 183 -26 z "},"ˇ":{"ha":426,"x_min":-29,"x_max":460,"o":"m -29 1010 l 117 1010 l 215 897 l 314 1010 l 460 1010 l 306 806 l 125 806 l -29 1010 z "},"Ł":{"ha":740,"x_min":4,"x_max":721,"o":"m 571 738 l 571 594 l 329 449 l 329 172 l 721 172 l 721 1 l 101 0 l 101 311 l 4 253 l 4 396 l 101 454 l 101 968 l 329 968 l 329 592 l 571 738 z "},"ł":{"ha":424,"x_min":-1,"x_max":424,"o":"m -1 464 l 103 526 l 103 1038 l 319 1038 l 319 657 l 424 719 l 424 585 l 319 522 l 319 0 l 103 0 l 103 392 l -1 329 l -1 464 z "},"Š":{"ha":813,"x_min":69,"x_max":749,"o":"m 749 279 q 644 61 749 139 q 361 -17 539 -17 q 204 -2 279 -17 q 82 26 129 13 l 100 221 q 199 180 124 204 q 349 156 274 156 q 469 185 422 156 q 515 264 515 214 q 481 335 515 303 q 342 403 446 368 q 137 510 204 447 q 69 692 69 572 q 173 908 69 832 q 457 985 276 985 q 588 974 525 985 q 694 947 651 963 l 678 767 q 577 801 629 789 q 464 813 525 813 q 347 785 390 813 q 304 704 304 758 q 337 640 304 667 q 496 571 369 614 q 692 460 636 525 q 749 279 749 394 m 160 1228 l 306 1228 l 404 1115 l 503 1228 l 649 1228 l 494 1024 l 314 1024 l 160 1228 z "},"š":{"ha":654,"x_min":46,"x_max":606,"o":"m 606 210 q 521 42 606 101 q 288 -17 436 -17 q 156 -7 219 -17 q 51 18 92 3 l 65 183 q 144 156 82 176 q 275 135 206 135 q 356 149 326 135 q 386 200 386 164 q 355 249 386 231 q 244 286 324 267 q 103 348 161 303 q 46 486 46 393 q 132 647 46 590 q 349 704 218 704 q 467 694 407 704 q 567 671 526 683 l 553 514 q 470 543 521 532 q 371 554 419 554 q 286 540 314 554 q 258 496 258 525 q 289 457 258 472 q 414 418 319 442 q 560 342 514 393 q 606 210 606 292 m 83 1010 l 229 1010 l 328 897 l 426 1010 l 572 1010 l 418 806 l 238 806 l 83 1010 z "},"Ž":{"ha":819,"x_min":40,"x_max":768,"o":"m 768 172 l 768 0 l 40 0 l 40 172 l 503 796 l 57 796 l 57 968 l 761 968 l 761 794 l 290 172 l 768 172 m 167 1228 l 313 1228 l 411 1115 l 510 1228 l 656 1228 l 501 1024 l 321 1024 l 167 1228 z "},"ž":{"ha":696,"x_min":40,"x_max":651,"o":"m 53 688 l 643 688 l 643 519 l 300 163 l 651 163 l 651 0 l 40 0 l 40 171 l 386 525 l 53 525 l 53 688 m 106 1010 l 251 1010 l 350 897 l 449 1010 l 594 1010 l 440 806 l 260 806 l 106 1010 z "},"¦":{"ha":313,"x_min":76,"x_max":235,"o":"m 76 -33 l 76 365 l 235 365 l 235 -33 l 76 -33 m 76 643 l 76 1042 l 235 1042 l 235 643 l 76 643 z "},"Ð":{"ha":1047,"x_min":7,"x_max":981,"o":"m 329 579 l 546 579 l 546 449 l 329 449 l 329 172 l 433 172 q 662 257 578 172 q 746 488 746 342 q 661 711 746 626 q 439 796 576 796 l 329 796 l 329 579 m 7 579 l 101 579 l 101 972 l 432 968 q 845 844 710 968 q 981 483 981 721 q 839 122 981 244 q 422 0 697 0 l 101 0 l 101 449 l 7 449 l 7 579 z "},"ð":{"ha":888,"x_min":47,"x_max":838,"o":"m 838 389 q 733 90 838 197 q 439 -18 628 -18 q 153 74 260 -18 q 47 326 47 167 q 140 581 47 482 q 385 679 233 679 q 491 662 439 679 q 578 601 543 644 q 431 796 540 704 q 393 826 415 810 l 233 743 l 158 822 l 290 890 q 163 949 238 919 l 279 1071 q 472 985 403 1029 l 640 1072 l 714 993 l 572 919 q 689 808 647 858 q 838 389 838 636 m 442 521 q 319 467 364 521 q 274 329 274 414 q 319 192 274 243 q 440 142 365 142 q 565 194 518 142 q 611 332 611 246 q 566 469 611 418 q 442 521 521 521 z "},"Ý":{"ha":967,"x_min":14,"x_max":951,"o":"m 699 968 l 951 968 l 599 378 l 599 0 l 371 0 l 371 376 l 14 968 l 279 968 l 488 575 l 699 968 m 376 1026 l 479 1228 l 706 1228 l 519 1026 l 376 1026 z "},"ý":{"ha":806,"x_min":14,"x_max":794,"o":"m 574 688 l 794 688 l 493 -57 q 384 -247 450 -186 q 214 -308 318 -308 q 113 -301 151 -308 q 63 -292 74 -294 l 76 -135 l 167 -149 q 247 -122 215 -149 q 286 -44 278 -94 l 294 -26 l 14 688 l 250 688 l 415 217 l 574 688 m 292 808 l 394 1010 l 621 1010 l 435 808 l 292 808 z "},"Þ":{"ha":817,"x_min":88,"x_max":786,"o":"m 88 968 l 315 968 l 315 826 l 422 826 q 694 751 601 826 q 786 525 786 676 q 689 292 786 374 q 418 211 592 211 l 315 211 l 315 381 l 393 378 q 513 415 469 378 q 557 522 557 453 q 513 622 557 586 q 393 658 468 658 l 315 658 l 315 0 l 88 0 l 88 968 z "},"þ":{"ha":885,"x_min":82,"x_max":839,"o":"m 297 94 l 297 -293 l 82 -293 l 82 1038 l 297 1038 l 297 569 q 401 676 342 647 q 529 704 460 704 q 755 606 671 704 q 839 343 839 507 q 751 82 839 181 q 518 -17 663 -17 q 396 8 456 -17 q 297 94 336 33 m 297 340 q 342 206 299 261 q 457 150 386 150 q 571 205 528 150 q 614 346 614 260 q 572 485 614 433 q 457 536 531 536 q 344 485 389 536 q 297 356 300 433 l 297 340 z "},"−":{"ha":832,"x_min":64,"x_max":768,"o":"m 64 279 l 64 440 l 768 440 l 768 279 l 64 279 z "},"×":{"ha":832,"x_min":89,"x_max":744,"o":"m 307 360 l 89 578 l 199 688 l 417 469 l 635 688 l 744 578 l 526 360 l 744 142 l 635 32 l 417 250 l 199 32 l 89 142 l 307 360 z "},"¹":{"ha":525,"x_min":38,"x_max":369,"o":"m 369 396 l 217 396 l 217 840 l 106 764 l 38 851 l 239 976 l 368 976 l 369 396 z "},"²":{"ha":525,"x_min":35,"x_max":486,"o":"m 35 396 l 35 497 q 124 567 81 532 q 208 643 167 603 q 283 725 250 682 q 317 808 317 768 q 290 863 317 843 q 221 883 264 883 q 120 866 168 883 q 58 839 72 849 l 50 947 q 128 973 72 960 q 247 986 185 986 q 410 942 351 986 q 468 817 468 897 q 424 694 468 756 q 344 600 381 632 l 228 497 l 486 497 l 485 396 l 35 396 z "},"³":{"ha":525,"x_min":38,"x_max":482,"o":"m 65 856 l 57 960 q 126 977 76 968 q 240 986 175 986 q 413 947 350 986 q 475 832 475 907 q 442 749 475 783 q 353 699 410 714 q 450 653 418 689 q 482 564 482 618 q 410 433 482 479 q 218 386 339 386 q 110 392 156 386 q 38 407 64 399 l 46 517 q 102 499 60 508 q 199 489 144 489 q 294 510 257 489 q 332 568 332 532 q 296 627 332 610 q 197 644 260 644 l 136 644 l 136 743 l 183 742 q 286 760 249 742 q 324 814 324 778 q 294 866 324 849 q 210 883 265 883 q 122 874 161 883 q 65 856 83 864 z "},"½":{"ha":1218,"x_min":31,"x_max":1179,"o":"m 363 396 l 210 396 l 210 840 l 99 764 l 31 851 l 232 976 l 361 976 l 363 396 m 226 -31 l 790 999 l 922 999 l 360 -31 l 226 -31 m 728 0 l 728 101 q 817 172 774 136 q 901 247 860 207 q 976 329 943 286 q 1010 413 1010 372 q 983 467 1010 447 q 914 488 957 488 q 813 470 861 488 q 751 443 765 453 l 743 551 q 822 577 765 564 q 940 590 878 590 q 1103 546 1044 590 q 1161 421 1161 501 q 1117 298 1161 360 q 1038 204 1074 236 l 921 101 l 1179 101 l 1178 0 l 728 0 z "},"¼":{"ha":1218,"x_min":42,"x_max":1183,"o":"m 374 396 l 221 396 l 221 840 l 110 764 l 42 851 l 243 976 l 372 976 l 374 396 m 253 -31 l 817 999 l 949 999 l 386 -31 l 253 -31 m 1097 0 l 960 0 l 960 117 l 669 117 l 669 225 l 925 581 l 960 458 l 789 213 l 960 213 l 960 458 l 925 581 l 1097 581 l 1097 213 l 1183 213 l 1183 117 l 1097 117 l 1097 0 z "},"¾":{"ha":1218,"x_min":35,"x_max":1190,"o":"m 63 856 l 54 960 q 123 977 74 968 q 238 986 172 986 q 410 947 347 986 q 472 832 472 907 q 440 749 472 783 q 350 699 407 714 q 447 653 415 689 q 479 564 479 618 q 408 433 479 479 q 215 386 336 386 q 107 392 153 386 q 35 407 61 399 l 43 517 q 99 499 57 508 q 196 489 142 489 q 292 510 254 489 q 329 568 329 532 q 293 627 329 610 q 194 644 257 644 l 133 644 l 133 743 l 181 742 q 283 760 246 742 q 321 814 321 778 q 292 866 321 849 q 207 883 263 883 q 119 874 158 883 q 63 856 81 864 m 261 -31 l 825 999 l 957 999 l 394 -31 l 261 -31 m 1104 0 l 967 0 l 967 117 l 676 117 l 676 225 l 932 581 l 967 458 l 796 213 l 967 213 l 967 458 l 932 581 l 1104 581 l 1104 213 l 1190 213 l 1190 117 l 1104 117 l 1104 0 z "},"₣":{"ha":740,"x_min":13,"x_max":697,"o":"m 13 326 l 99 326 l 99 968 l 697 968 l 697 801 l 326 801 l 326 574 l 679 574 l 681 407 l 326 407 l 326 326 l 413 326 l 413 158 l 326 158 l 326 0 l 99 0 l 99 158 l 13 158 l 13 326 z "},"Ğ":{"ha":1047,"x_min":60,"x_max":956,"o":"m 294 482 q 385 246 294 335 q 622 157 475 157 q 690 163 663 157 q 736 175 717 168 l 736 389 l 561 389 l 561 557 l 956 557 l 956 35 q 809 1 903 18 q 618 -17 715 -17 q 208 115 356 -17 q 60 483 60 246 q 212 853 60 722 q 632 985 364 985 q 802 973 728 985 q 929 940 876 961 l 929 931 l 914 753 q 794 797 860 782 q 661 811 729 811 q 393 723 492 811 q 294 482 294 635 m 624 1014 q 460 1065 531 1014 q 378 1231 390 1115 l 475 1231 q 533 1150 492 1174 q 624 1126 574 1126 q 715 1150 675 1126 q 772 1231 756 1174 l 869 1231 q 788 1065 857 1115 q 624 1014 718 1014 z "},"ğ":{"ha":885,"x_min":46,"x_max":793,"o":"m 793 75 q 696 -216 793 -124 q 397 -308 599 -308 q 227 -290 301 -308 q 132 -260 153 -271 l 144 -82 q 238 -123 169 -101 q 368 -144 307 -144 q 530 -92 475 -144 q 585 72 585 -39 l 585 118 q 483 27 543 56 q 358 -1 422 -1 q 129 92 213 -1 q 46 343 46 185 q 130 607 46 510 q 363 704 214 704 q 480 678 424 704 q 575 596 536 651 l 575 688 l 793 688 l 793 75 m 579 343 l 579 357 q 537 488 578 440 q 424 536 496 536 q 313 485 354 536 q 272 350 272 435 q 315 218 272 269 q 425 167 357 167 q 536 217 493 167 q 579 343 579 267 m 418 796 q 255 847 325 796 q 172 1013 185 897 l 269 1013 q 327 932 286 956 q 418 908 368 908 q 510 932 469 908 q 567 1013 550 956 l 664 1013 q 582 847 651 897 q 418 796 513 796 z "},"İ":{"ha":428,"x_min":101,"x_max":329,"o":"m 329 0 l 101 0 l 101 968 l 329 968 l 329 0 m 215 1219 q 307 1218 306 1219 q 308 1124 308 1217 q 307 1029 308 1031 q 217 1028 306 1028 q 126 1029 126 1028 q 125 1124 125 1031 q 126 1218 125 1217 q 215 1219 126 1219 z "},"Ş":{"ha":813,"x_min":69,"x_max":749,"o":"m 749 279 q 644 61 749 139 q 361 -17 539 -17 q 204 -2 279 -17 q 82 26 129 13 l 100 221 q 199 180 124 204 q 349 156 274 156 q 469 185 422 156 q 515 264 515 214 q 481 335 515 303 q 342 403 446 368 q 137 510 204 447 q 69 692 69 572 q 173 908 69 832 q 457 985 276 985 q 588 974 525 985 q 694 947 651 963 l 678 767 q 577 801 629 789 q 464 813 525 813 q 347 785 390 813 q 304 704 304 758 q 337 640 304 667 q 496 571 369 614 q 692 460 636 525 q 749 279 749 394 m 181 -276 l 204 -206 q 240 -220 210 -210 q 308 -231 269 -231 q 363 -219 344 -231 q 382 -185 382 -208 q 367 -149 382 -162 q 328 -136 353 -136 l 279 -146 l 244 -112 l 313 0 l 403 0 l 350 -83 l 414 -74 q 492 -103 463 -74 q 521 -182 521 -132 q 472 -274 521 -242 q 340 -306 424 -306 q 247 -296 288 -306 q 181 -276 206 -286 z "},"ş":{"ha":654,"x_min":46,"x_max":606,"o":"m 606 210 q 521 42 606 101 q 288 -17 436 -17 q 156 -7 219 -17 q 51 18 92 3 l 65 183 q 144 156 82 176 q 275 135 206 135 q 356 149 326 135 q 386 200 386 164 q 355 249 386 231 q 244 286 324 267 q 103 348 161 303 q 46 486 46 393 q 132 647 46 590 q 349 704 218 704 q 467 694 407 704 q 567 671 526 683 l 553 514 q 470 543 521 532 q 371 554 419 554 q 286 540 314 554 q 258 496 258 525 q 289 457 258 472 q 414 418 319 442 q 560 342 514 393 q 606 210 606 292 m 111 -276 l 135 -206 q 170 -220 140 -210 q 239 -231 200 -231 q 294 -219 275 -231 q 313 -185 313 -208 q 298 -149 313 -162 q 258 -136 283 -136 l 210 -146 l 175 -112 l 243 0 l 333 0 l 281 -83 l 344 -74 q 422 -103 393 -74 q 451 -182 451 -132 q 403 -274 451 -242 q 271 -306 354 -306 q 177 -296 218 -306 q 111 -276 136 -286 z "},"Ć":{"ha":899,"x_min":61,"x_max":868,"o":"m 296 482 q 385 246 296 335 q 622 157 474 157 q 752 172 689 157 q 856 206 815 188 l 868 22 q 746 -5 814 7 q 601 -17 678 -17 q 206 115 350 -17 q 61 478 61 246 q 207 848 61 711 q 599 985 353 985 q 754 969 685 985 q 865 938 824 953 l 847 749 q 738 795 799 779 q 613 811 676 811 q 383 719 471 811 q 296 482 296 628 m 475 1026 l 578 1228 l 804 1228 l 618 1026 l 475 1026 z "},"ć":{"ha":658,"x_min":46,"x_max":629,"o":"m 622 171 l 629 6 q 560 -8 610 1 q 444 -17 510 -17 q 153 81 261 -17 q 46 349 46 179 q 153 606 46 507 q 435 704 261 704 q 540 695 490 704 q 622 671 589 686 l 606 507 q 551 529 590 518 q 468 540 513 540 q 326 488 379 540 q 272 347 272 435 q 327 201 272 256 q 475 147 382 147 q 569 158 528 147 q 622 171 610 168 m 292 808 l 394 1010 l 621 1010 l 435 808 l 292 808 z "},"Č":{"ha":899,"x_min":61,"x_max":868,"o":"m 296 482 q 385 246 296 335 q 622 157 474 157 q 752 172 689 157 q 856 206 815 188 l 868 22 q 746 -5 814 7 q 601 -17 678 -17 q 206 115 350 -17 q 61 478 61 246 q 207 848 61 711 q 599 985 353 985 q 754 969 685 985 q 865 938 824 953 l 847 749 q 738 795 799 779 q 613 811 676 811 q 383 719 471 811 q 296 482 296 628 m 339 1228 l 485 1228 l 583 1115 l 682 1228 l 828 1228 l 674 1024 l 493 1024 l 339 1228 z "},"č":{"ha":658,"x_min":46,"x_max":644,"o":"m 622 171 l 629 6 q 560 -8 610 1 q 444 -17 510 -17 q 153 81 261 -17 q 46 349 46 179 q 153 606 46 507 q 435 704 261 704 q 540 695 490 704 q 622 671 589 686 l 606 507 q 551 529 590 518 q 468 540 513 540 q 326 488 379 540 q 272 347 272 435 q 327 201 272 256 q 475 147 382 147 q 569 158 528 147 q 622 171 610 168 m 156 1010 l 301 1010 l 400 897 l 499 1010 l 644 1010 l 490 806 l 310 806 l 156 1010 z "},"đ":{"ha":886,"x_min":46,"x_max":878,"o":"m 428 928 l 583 928 l 583 1038 l 799 1038 l 799 928 l 878 928 l 878 810 l 799 810 l 799 0 l 597 0 l 597 106 q 492 12 553 40 q 363 -17 432 -17 q 131 83 217 -17 q 46 347 46 182 q 125 603 46 503 q 350 704 204 704 q 473 683 413 704 q 583 599 533 663 l 583 810 l 428 810 l 428 928 m 583 333 l 583 349 q 538 486 582 435 q 425 538 493 538 q 315 485 357 538 q 272 347 272 432 q 314 205 272 260 q 426 150 356 150 q 538 204 494 150 q 583 333 582 258 z "},"­":{"ha":463,"x_min":46,"x_max":415,"o":"m 46 453 l 415 453 l 415 285 l 46 285 l 46 453 z "},"·":{"ha":404,"x_min":93,"x_max":310,"o":"m 201 500 q 308 499 307 500 q 310 393 310 497 q 308 288 310 289 q 201 286 307 286 q 94 288 96 286 q 93 393 93 289 q 94 499 93 497 q 201 500 96 500 z "},"Ā":{"ha":1046,"x_min":11,"x_max":1036,"o":"m 650 381 l 519 774 l 383 381 l 650 381 m 1036 0 l 786 0 l 708 213 l 324 213 l 244 0 l 11 0 l 386 968 l 654 968 l 1036 0 m 288 1190 l 753 1190 l 753 1075 l 288 1075 l 288 1190 z "},"ā":{"ha":807,"x_min":46,"x_max":739,"o":"m 519 299 l 519 315 q 485 311 510 311 q 424 310 460 311 q 294 284 336 308 q 251 213 251 260 q 279 155 251 176 q 360 133 307 133 q 476 186 432 133 q 519 299 519 239 m 529 115 q 430 15 489 47 q 301 -17 371 -17 q 114 42 182 -17 q 46 194 46 101 q 135 369 46 308 q 396 431 225 429 l 519 429 q 476 526 519 499 q 356 554 432 554 q 235 535 296 554 q 132 483 175 515 l 128 650 q 245 688 169 672 q 394 704 321 704 q 642 633 563 704 q 722 406 722 561 l 722 206 q 727 64 722 122 q 736 6 732 6 l 739 3 l 542 0 q 533 33 536 0 q 529 115 531 67 m 165 972 l 631 972 l 631 857 l 165 857 l 165 972 z "},"Ă":{"ha":1046,"x_min":11,"x_max":1036,"o":"m 650 381 l 519 774 l 383 381 l 650 381 m 1036 0 l 786 0 l 708 213 l 324 213 l 244 0 l 11 0 l 386 968 l 654 968 l 1036 0 m 517 1014 q 353 1065 424 1014 q 271 1231 283 1115 l 368 1231 q 426 1150 385 1174 q 517 1126 467 1126 q 608 1150 568 1126 q 665 1231 649 1174 l 763 1231 q 681 1065 750 1115 q 517 1014 611 1014 z "},"ă":{"ha":807,"x_min":46,"x_max":739,"o":"m 519 299 l 519 315 q 485 311 510 311 q 424 310 460 311 q 294 284 336 308 q 251 213 251 260 q 279 155 251 176 q 360 133 307 133 q 476 186 432 133 q 519 299 519 239 m 529 115 q 430 15 489 47 q 301 -17 371 -17 q 114 42 182 -17 q 46 194 46 101 q 135 369 46 308 q 396 431 225 429 l 519 429 q 476 526 519 499 q 356 554 432 554 q 235 535 296 554 q 132 483 175 515 l 128 650 q 245 688 169 672 q 394 704 321 704 q 642 633 563 704 q 722 406 722 561 l 722 206 q 727 64 722 122 q 736 6 732 6 l 739 3 l 542 0 q 533 33 536 0 q 529 115 531 67 m 394 796 q 231 847 301 796 q 149 1013 161 897 l 246 1013 q 303 932 263 956 q 394 908 344 908 q 486 932 446 908 q 543 1013 526 956 l 640 1013 q 558 847 628 897 q 394 796 489 796 z "},"Ą":{"ha":1046,"x_min":11,"x_max":1042,"o":"m 650 381 l 519 774 l 383 381 l 650 381 m 1036 0 l 786 0 l 708 213 l 324 213 l 244 0 l 11 0 l 386 968 l 654 968 l 1036 0 m 881 0 l 964 0 q 886 -73 922 -28 q 850 -160 850 -118 q 868 -206 850 -190 q 910 -221 886 -221 q 947 -212 928 -221 q 990 -179 967 -203 l 1042 -201 q 964 -284 1007 -262 q 858 -306 921 -306 q 757 -275 794 -306 q 719 -182 719 -244 q 773 -75 719 -124 q 881 0 826 -26 z "},"ą":{"ha":807,"x_min":46,"x_max":776,"o":"m 519 299 l 519 315 q 485 311 510 311 q 424 310 460 311 q 294 284 336 308 q 251 213 251 260 q 279 155 251 176 q 360 133 307 133 q 476 186 432 133 q 519 299 519 239 m 529 115 q 430 15 489 47 q 301 -17 371 -17 q 114 42 182 -17 q 46 194 46 101 q 135 369 46 308 q 396 431 225 429 l 519 429 q 476 526 519 499 q 356 554 432 554 q 235 535 296 554 q 132 483 175 515 l 128 650 q 245 688 169 672 q 394 704 321 704 q 642 633 563 704 q 722 406 722 561 l 722 206 q 727 64 722 122 q 736 6 732 6 l 739 3 l 542 0 q 533 33 536 0 q 529 115 531 67 m 615 0 l 699 0 q 621 -73 657 -28 q 585 -160 585 -118 q 603 -206 585 -190 q 644 -221 621 -221 q 682 -212 663 -221 q 725 -179 701 -203 l 776 -201 q 699 -284 742 -262 q 593 -306 656 -306 q 492 -275 529 -306 q 454 -182 454 -244 q 508 -75 454 -124 q 615 0 561 -26 z "},"Ď":{"ha":1047,"x_min":101,"x_max":981,"o":"m 746 488 q 661 711 746 626 q 440 796 576 796 l 331 796 l 331 172 l 435 172 q 662 257 578 172 q 746 488 746 342 m 101 968 l 432 968 q 845 844 710 968 q 981 483 981 721 q 839 122 981 244 q 422 0 697 0 l 101 0 l 101 968 m 204 1228 l 350 1228 l 449 1115 l 547 1228 l 693 1228 l 539 1024 l 358 1024 l 204 1228 z "},"ď":{"ha":1147,"x_min":46,"x_max":1181,"o":"m 596 106 q 492 12 553 40 q 363 -17 431 -17 q 131 83 215 -17 q 46 347 46 182 q 125 603 46 503 q 350 704 204 704 q 472 683 413 704 q 582 599 532 663 l 582 1038 l 799 1038 l 799 0 l 596 0 l 596 106 m 582 333 l 582 349 q 536 486 581 435 q 425 538 492 538 q 315 485 357 538 q 272 347 272 432 q 314 205 272 260 q 426 150 356 150 q 537 204 493 150 q 582 333 581 258 m 967 1036 q 1157 1033 1133 1036 q 1181 1028 1181 1031 l 1042 669 l 874 672 l 876 681 l 964 1025 l 960 1031 l 967 1036 z "},"Đ":{"ha":1053,"x_min":7,"x_max":981,"o":"m 329 579 l 546 579 l 546 449 l 329 449 l 329 172 l 433 172 q 662 257 578 172 q 746 488 746 342 q 661 711 746 626 q 439 796 576 796 l 329 796 l 329 579 m 7 579 l 101 579 l 101 972 l 432 968 q 845 844 710 968 q 981 483 981 721 q 839 122 981 244 q 422 0 697 0 l 101 0 l 101 449 l 7 449 l 7 579 z "},"Ē":{"ha":815,"x_min":99,"x_max":740,"o":"m 740 0 l 99 0 l 99 968 l 732 968 l 732 801 l 326 801 l 326 581 l 703 581 l 703 414 l 326 414 l 326 168 l 740 168 l 740 0 m 172 1190 l 638 1190 l 638 1075 l 172 1075 l 172 1190 z "},"ē":{"ha":808,"x_min":44,"x_max":754,"o":"m 697 22 q 585 -6 646 4 q 447 -17 524 -17 q 152 79 260 -17 q 44 344 44 175 q 142 606 44 508 q 403 704 240 704 q 668 596 583 704 q 753 297 753 488 l 754 281 l 257 281 q 304 186 274 217 q 469 133 358 133 q 606 152 540 133 q 697 185 672 171 l 697 22 m 256 413 l 539 413 l 554 411 q 515 522 553 485 q 408 558 478 558 q 292 501 333 558 q 256 413 267 469 m 169 972 l 635 972 l 635 857 l 169 857 l 169 972 z "},"Ė":{"ha":815,"x_min":99,"x_max":740,"o":"m 740 0 l 99 0 l 99 968 l 732 968 l 732 801 l 326 801 l 326 581 l 703 581 l 703 414 l 326 414 l 326 168 l 740 168 l 740 0 m 410 1219 q 501 1218 500 1219 q 503 1124 503 1217 q 501 1029 503 1031 q 411 1028 500 1028 q 320 1029 321 1028 q 319 1124 319 1031 q 320 1218 319 1217 q 410 1219 321 1219 z "},"ė":{"ha":808,"x_min":44,"x_max":754,"o":"m 697 22 q 585 -6 646 4 q 447 -17 524 -17 q 152 79 260 -17 q 44 344 44 175 q 142 606 44 508 q 403 704 240 704 q 668 596 583 704 q 753 297 753 488 l 754 281 l 257 281 q 304 186 274 217 q 469 133 358 133 q 606 152 540 133 q 697 185 672 171 l 697 22 m 256 413 l 539 413 l 554 411 q 515 522 553 485 q 408 558 478 558 q 292 501 333 558 q 256 413 267 469 m 407 1001 q 499 1000 497 1001 q 500 906 500 999 q 499 811 500 813 q 408 810 497 810 q 317 811 318 810 q 317 906 317 813 q 317 1000 317 999 q 407 1001 318 1001 z "},"Ę":{"ha":815,"x_min":99,"x_max":740,"o":"m 740 0 l 99 0 l 99 968 l 732 968 l 732 801 l 326 801 l 326 581 l 703 581 l 703 414 l 326 414 l 326 168 l 740 168 l 740 0 m 494 0 l 578 0 q 500 -73 536 -28 q 464 -160 464 -118 q 482 -206 464 -190 q 524 -221 500 -221 q 561 -212 542 -221 q 604 -179 581 -203 l 656 -201 q 578 -284 621 -262 q 472 -306 535 -306 q 371 -275 408 -306 q 333 -182 333 -244 q 387 -75 333 -124 q 494 0 440 -26 z "},"ę":{"ha":808,"x_min":44,"x_max":754,"o":"m 697 22 q 585 -6 646 4 q 447 -17 524 -17 q 152 79 260 -17 q 44 344 44 175 q 142 606 44 508 q 403 704 240 704 q 668 596 583 704 q 753 297 753 488 l 754 281 l 257 281 q 304 186 274 217 q 469 133 358 133 q 606 152 540 133 q 697 185 672 171 l 697 22 m 256 413 l 539 413 l 554 411 q 515 522 553 485 q 408 558 478 558 q 292 501 333 558 q 256 413 267 469 m 419 0 l 503 0 q 425 -73 461 -28 q 389 -160 389 -118 q 407 -206 389 -190 q 449 -221 425 -221 q 486 -212 467 -221 q 529 -179 506 -203 l 581 -201 q 503 -284 546 -262 q 397 -306 460 -306 q 296 -275 333 -306 q 258 -182 258 -244 q 312 -75 258 -124 q 419 0 365 -26 z "},"Ě":{"ha":815,"x_min":99,"x_max":740,"o":"m 740 0 l 99 0 l 99 968 l 732 968 l 732 801 l 326 801 l 326 581 l 703 581 l 703 414 l 326 414 l 326 168 l 740 168 l 740 0 m 160 1228 l 306 1228 l 404 1115 l 503 1228 l 649 1228 l 494 1024 l 314 1024 l 160 1228 z "},"ě":{"ha":808,"x_min":44,"x_max":754,"o":"m 697 22 q 585 -6 646 4 q 447 -17 524 -17 q 152 79 260 -17 q 44 344 44 175 q 142 606 44 508 q 403 704 240 704 q 668 596 583 704 q 753 297 753 488 l 754 281 l 257 281 q 304 186 274 217 q 469 133 358 133 q 606 152 540 133 q 697 185 672 171 l 697 22 m 256 413 l 539 413 l 554 411 q 515 522 553 485 q 408 558 478 558 q 292 501 333 558 q 256 413 267 469 m 157 1010 l 303 1010 l 401 897 l 500 1010 l 646 1010 l 492 806 l 311 806 l 157 1010 z "},"Ģ":{"ha":1047,"x_min":60,"x_max":956,"o":"m 294 482 q 385 246 294 335 q 622 157 475 157 q 690 163 663 157 q 736 175 717 168 l 736 389 l 561 389 l 561 557 l 956 557 l 956 35 q 809 1 903 18 q 618 -17 715 -17 q 208 115 356 -17 q 60 483 60 246 q 212 853 60 722 q 632 985 364 985 q 802 973 728 985 q 929 940 876 961 l 929 931 l 914 753 q 794 797 860 782 q 661 811 729 811 q 393 723 492 811 q 294 482 294 635 m 431 -276 l 454 -206 q 490 -220 460 -210 q 558 -231 519 -231 q 613 -219 594 -231 q 632 -185 632 -208 q 617 -149 632 -162 q 578 -136 603 -136 l 529 -146 l 494 -112 l 563 0 l 653 0 l 600 -83 l 664 -74 q 742 -103 713 -74 q 771 -182 771 -132 q 722 -274 771 -242 q 590 -306 674 -306 q 497 -296 538 -306 q 431 -276 456 -286 z "},"ģ":{"ha":885,"x_min":46,"x_max":793,"o":"m 793 75 q 696 -216 793 -124 q 397 -308 599 -308 q 227 -290 301 -308 q 132 -260 153 -271 l 144 -82 q 238 -123 169 -101 q 368 -144 307 -144 q 530 -92 475 -144 q 585 72 585 -39 l 585 118 q 483 27 543 56 q 358 -1 422 -1 q 129 92 213 -1 q 46 343 46 185 q 130 607 46 510 q 363 704 214 704 q 480 678 424 704 q 575 596 536 651 l 575 688 l 793 688 l 793 75 m 579 343 l 579 357 q 537 488 578 440 q 424 536 496 536 q 313 485 354 536 q 272 350 272 435 q 315 218 272 269 q 425 167 357 167 q 536 217 493 167 q 579 343 579 267 m 313 808 l 415 1010 l 642 1010 l 456 808 l 313 808 z "},"Ī":{"ha":428,"x_min":-22,"x_max":443,"o":"m 329 0 l 101 0 l 101 968 l 329 968 l 329 0 m -22 1190 l 443 1190 l 443 1075 l -22 1075 l -22 1190 z "},"ī":{"ha":424,"x_min":-22,"x_max":443,"o":"m 319 0 l 103 0 l 103 688 l 319 688 l 319 0 m -22 972 l 443 972 l 443 857 l -22 857 l -22 972 z "},"Į":{"ha":428,"x_min":50,"x_max":372,"o":"m 329 0 l 101 0 l 101 968 l 329 968 l 329 0 m 211 0 l 294 0 q 217 -73 253 -28 q 181 -160 181 -118 q 199 -206 181 -190 q 240 -221 217 -221 q 278 -212 258 -221 q 321 -179 297 -203 l 372 -201 q 294 -284 338 -262 q 189 -306 251 -306 q 88 -275 125 -306 q 50 -182 50 -244 q 103 -75 50 -124 q 211 0 157 -26 z "},"į":{"ha":424,"x_min":35,"x_max":357,"o":"m 101 901 q 103 992 101 990 q 211 993 104 993 q 319 992 318 993 q 321 901 321 990 q 319 811 321 813 q 211 810 318 810 q 103 811 104 810 q 101 901 101 813 m 319 0 l 103 0 l 103 688 l 319 688 l 319 0 m 196 0 l 279 0 q 201 -73 238 -28 q 165 -160 165 -118 q 183 -206 165 -190 q 225 -221 201 -221 q 263 -212 243 -221 q 306 -179 282 -203 l 357 -201 q 279 -284 322 -262 q 174 -306 236 -306 q 72 -275 110 -306 q 35 -182 35 -244 q 88 -75 35 -124 q 196 0 142 -26 z "},"Ķ":{"ha":967,"x_min":35,"x_max":954,"o":"m 331 0 l 101 0 l 101 968 l 331 968 l 331 560 l 650 968 l 925 968 l 551 514 l 954 0 l 661 0 l 332 446 l 331 446 l 331 0 m 35 -276 l 58 -206 q 94 -220 64 -210 q 163 -231 124 -231 q 217 -219 199 -231 q 236 -185 236 -208 q 222 -149 236 -162 q 182 -136 207 -136 l 133 -146 l 99 -112 l 167 0 l 257 0 l 204 -83 l 268 -74 q 346 -103 317 -74 q 375 -182 375 -132 q 326 -274 375 -242 q 194 -306 278 -306 q 101 -296 142 -306 q 35 -276 60 -286 z "},"ķ":{"ha":808,"x_min":10,"x_max":799,"o":"m 88 1038 l 304 1038 l 304 400 l 525 688 l 772 688 l 513 375 l 799 0 l 529 0 l 304 342 l 304 343 l 304 0 l 88 0 l 88 1038 m 10 -276 l 33 -206 q 69 -220 39 -210 q 138 -231 99 -231 q 192 -219 174 -231 q 211 -185 211 -208 q 197 -149 211 -162 q 157 -136 182 -136 l 108 -146 l 74 -112 l 142 0 l 232 0 l 179 -83 l 243 -74 q 321 -103 292 -74 q 350 -182 350 -132 q 301 -274 350 -242 q 169 -306 253 -306 q 76 -296 117 -306 q 10 -276 35 -286 z "},"Ĺ":{"ha":740,"x_min":101,"x_max":721,"o":"m 329 968 l 329 172 l 721 172 l 721 1 l 101 0 l 101 968 l 329 968 m 136 1026 l 239 1228 l 465 1228 l 279 1026 l 136 1026 z "},"ĺ":{"ha":424,"x_min":103,"x_max":456,"o":"m 103 1038 l 319 1038 l 319 0 l 103 0 l 103 1038 m 126 1110 l 229 1311 l 456 1311 l 269 1110 l 126 1110 z "},"Ļ":{"ha":740,"x_min":101,"x_max":721,"o":"m 329 968 l 329 172 l 721 172 l 721 1 l 101 0 l 101 968 l 329 968 m 254 -276 l 278 -206 q 313 -220 283 -210 q 382 -231 343 -231 q 437 -219 418 -231 q 456 -185 456 -208 q 441 -149 456 -162 q 401 -136 426 -136 l 353 -146 l 318 -112 l 386 0 l 476 0 l 424 -83 l 488 -74 q 565 -103 536 -74 q 594 -182 594 -132 q 546 -274 594 -242 q 414 -306 497 -306 q 320 -296 361 -306 q 254 -276 279 -286 z "},"ļ":{"ha":424,"x_min":42,"x_max":382,"o":"m 103 1038 l 319 1038 l 319 0 l 103 0 l 103 1038 m 42 -276 l 65 -206 q 101 -220 71 -210 q 169 -231 131 -231 q 224 -219 206 -231 q 243 -185 243 -208 q 228 -149 243 -162 q 189 -136 214 -136 l 140 -146 l 106 -112 l 174 0 l 264 0 l 211 -83 l 275 -74 q 353 -103 324 -74 q 382 -182 382 -132 q 333 -274 382 -242 q 201 -306 285 -306 q 108 -296 149 -306 q 42 -276 67 -286 z "},"Ľ":{"ha":740,"x_min":101,"x_max":729,"o":"m 329 968 l 329 172 l 721 172 l 721 1 l 101 0 l 101 968 l 329 968 m 515 969 q 706 967 682 969 q 729 961 729 964 l 590 603 l 422 606 l 425 614 l 513 958 l 508 964 l 515 969 z "},"ľ":{"ha":713,"x_min":103,"x_max":706,"o":"m 103 1038 l 319 1038 l 319 0 l 103 0 l 103 1038 m 492 1036 q 682 1033 658 1036 q 706 1028 706 1031 l 567 669 l 399 672 l 401 681 l 489 1025 l 485 1031 l 492 1036 z "},"Ŀ":{"ha":740,"x_min":101,"x_max":721,"o":"m 329 968 l 329 172 l 721 172 l 721 1 l 101 0 l 101 968 l 329 968 m 574 644 q 665 643 664 644 q 667 549 667 642 q 665 454 667 456 q 575 453 664 453 q 484 454 485 453 q 483 549 483 456 q 484 643 483 642 q 574 644 485 644 z "},"ŀ":{"ha":624,"x_min":103,"x_max":615,"o":"m 103 1038 l 319 1038 l 319 0 l 103 0 l 103 1038 m 522 644 q 614 643 613 644 q 615 549 615 642 q 614 454 615 456 q 524 453 613 453 q 433 454 433 453 q 432 549 432 456 q 433 643 432 642 q 522 644 433 644 z "},"Ń":{"ha":1050,"x_min":100,"x_max":951,"o":"m 738 278 l 738 968 l 951 968 l 951 0 l 675 0 l 667 15 l 314 685 l 314 0 l 100 0 l 100 968 l 383 968 l 738 278 m 414 1026 l 517 1228 l 743 1228 l 557 1026 l 414 1026 z "},"ń":{"ha":885,"x_min":86,"x_max":799,"o":"m 799 0 l 582 0 l 582 382 q 551 490 582 450 q 463 529 521 529 q 345 474 386 529 q 303 315 304 419 l 303 0 l 86 0 l 86 688 l 289 688 l 289 569 q 391 669 329 635 q 542 704 453 704 q 733 631 667 704 q 799 425 799 558 l 799 0 m 333 808 l 436 1010 l 663 1010 l 476 808 l 333 808 z "},"Ņ":{"ha":1050,"x_min":38,"x_max":951,"o":"m 738 278 l 738 968 l 951 968 l 951 0 l 675 0 l 667 15 l 314 685 l 314 0 l 100 0 l 100 968 l 383 968 l 738 278 m 38 -276 l 61 -206 q 97 -220 67 -210 q 165 -231 126 -231 q 220 -219 201 -231 q 239 -185 239 -208 q 224 -149 239 -162 q 185 -136 210 -136 l 136 -146 l 101 -112 l 169 0 l 260 0 l 207 -83 l 271 -74 q 349 -103 319 -74 q 378 -182 378 -132 q 329 -274 378 -242 q 197 -306 281 -306 q 103 -296 144 -306 q 38 -276 63 -286 z "},"ņ":{"ha":885,"x_min":22,"x_max":799,"o":"m 799 0 l 582 0 l 582 382 q 551 490 582 450 q 463 529 521 529 q 345 474 386 529 q 303 315 304 419 l 303 0 l 86 0 l 86 688 l 289 688 l 289 569 q 391 669 329 635 q 542 704 453 704 q 733 631 667 704 q 799 425 799 558 l 799 0 m 22 -276 l 46 -206 q 81 -220 51 -210 q 150 -231 111 -231 q 205 -219 186 -231 q 224 -185 224 -208 q 209 -149 224 -162 q 169 -136 194 -136 l 121 -146 l 86 -112 l 154 0 l 244 0 l 192 -83 l 256 -74 q 333 -103 304 -74 q 363 -182 363 -132 q 314 -274 363 -242 q 182 -306 265 -306 q 88 -296 129 -306 q 22 -276 47 -286 z "},"Ň":{"ha":1050,"x_min":100,"x_max":951,"o":"m 738 278 l 738 968 l 951 968 l 951 0 l 675 0 l 667 15 l 314 685 l 314 0 l 100 0 l 100 968 l 383 968 l 738 278 m 278 1228 l 424 1228 l 522 1115 l 621 1228 l 767 1228 l 613 1024 l 432 1024 l 278 1228 z "},"ň":{"ha":885,"x_min":86,"x_max":799,"o":"m 799 0 l 582 0 l 582 382 q 551 490 582 450 q 463 529 521 529 q 345 474 386 529 q 303 315 304 419 l 303 0 l 86 0 l 86 688 l 289 688 l 289 569 q 391 669 329 635 q 542 704 453 704 q 733 631 667 704 q 799 425 799 558 l 799 0 m 197 1010 l 343 1010 l 442 897 l 540 1010 l 686 1010 l 532 806 l 351 806 l 197 1010 z "},"Ō":{"ha":1088,"x_min":60,"x_max":1025,"o":"m 790 483 q 725 723 790 635 q 543 811 660 811 q 360 723 425 811 q 294 483 294 635 q 360 245 294 333 q 543 157 425 157 q 725 245 660 157 q 790 483 790 333 m 1025 483 q 897 117 1025 250 q 543 -17 769 -17 q 188 117 315 -17 q 60 483 60 250 q 185 853 60 722 q 543 985 311 985 q 899 853 774 985 q 1025 483 1025 722 m 308 1190 l 774 1190 l 774 1075 l 308 1075 l 308 1190 z "},"ō":{"ha":886,"x_min":47,"x_max":839,"o":"m 839 343 q 730 82 839 181 q 443 -17 621 -17 q 156 82 265 -17 q 47 343 47 181 q 156 606 47 507 q 443 704 265 704 q 730 606 621 704 q 839 343 839 507 m 613 343 q 569 492 613 439 q 443 546 525 546 q 317 492 361 546 q 274 343 274 439 q 318 196 274 250 q 443 142 363 142 q 568 196 524 142 q 613 343 613 250 m 207 972 l 672 972 l 672 857 l 207 857 l 207 972 z "},"Ő":{"ha":1088,"x_min":60,"x_max":1025,"o":"m 790 483 q 725 723 790 635 q 543 811 660 811 q 360 723 425 811 q 294 483 294 635 q 360 245 294 333 q 543 157 425 157 q 725 245 660 157 q 790 483 790 333 m 1025 483 q 897 117 1025 250 q 543 -17 769 -17 q 188 117 315 -17 q 60 483 60 250 q 185 853 60 722 q 543 985 311 985 q 899 853 774 985 q 1025 483 1025 722 m 306 1026 l 408 1226 l 633 1226 l 449 1026 l 306 1026 m 615 1026 l 717 1226 l 943 1226 l 758 1026 l 615 1026 z "},"ő":{"ha":886,"x_min":47,"x_max":842,"o":"m 839 343 q 730 82 839 181 q 443 -17 621 -17 q 156 82 265 -17 q 47 343 47 181 q 156 606 47 507 q 443 704 265 704 q 730 606 621 704 q 839 343 839 507 m 613 343 q 569 492 613 439 q 443 546 525 546 q 317 492 361 546 q 274 343 274 439 q 318 196 274 250 q 443 142 363 142 q 568 196 524 142 q 613 343 613 250 m 204 808 l 307 1008 l 532 1008 l 347 808 l 204 808 m 514 808 l 615 1008 l 842 1008 l 657 808 l 514 808 z "},"Ŕ":{"ha":892,"x_min":89,"x_max":864,"o":"m 317 393 l 317 0 l 89 0 l 89 968 l 460 968 q 721 905 631 968 q 811 710 811 842 q 764 565 811 631 q 615 479 717 500 q 705 401 676 463 q 754 283 733 340 l 760 271 l 864 0 l 619 0 l 522 268 q 474 358 504 322 q 386 393 443 393 l 317 393 m 317 560 l 413 560 q 535 590 490 560 q 579 681 579 619 q 535 773 579 744 q 406 801 492 801 l 317 801 l 317 560 m 310 1026 l 413 1228 l 639 1228 l 453 1026 l 310 1026 z "},"ŕ":{"ha":582,"x_min":89,"x_max":565,"o":"m 304 0 l 89 0 l 89 688 l 285 688 l 285 533 q 372 665 317 625 q 492 704 428 704 q 535 701 518 704 q 565 694 551 697 l 556 499 q 524 506 543 501 q 475 511 504 511 q 349 449 392 511 q 304 281 306 388 l 304 0 m 225 808 l 328 1010 l 554 1010 l 368 808 l 225 808 z "},"Ŗ":{"ha":892,"x_min":21,"x_max":864,"o":"m 317 393 l 317 0 l 89 0 l 89 968 l 460 968 q 721 905 631 968 q 811 710 811 842 q 764 565 811 631 q 615 479 717 500 q 705 401 676 463 q 754 283 733 340 l 760 271 l 864 0 l 619 0 l 522 268 q 474 358 504 322 q 386 393 443 393 l 317 393 m 317 560 l 413 560 q 535 590 490 560 q 579 681 579 619 q 535 773 579 744 q 406 801 492 801 l 317 801 l 317 560 m 21 -276 l 44 -206 q 80 -220 50 -210 q 149 -231 110 -231 q 203 -219 185 -231 q 222 -185 222 -208 q 208 -149 222 -162 q 168 -136 193 -136 l 119 -146 l 85 -112 l 153 0 l 243 0 l 190 -83 l 254 -74 q 332 -103 303 -74 q 361 -182 361 -132 q 313 -274 361 -242 q 181 -306 264 -306 q 87 -296 128 -306 q 21 -276 46 -286 z "},"ŗ":{"ha":582,"x_min":24,"x_max":565,"o":"m 304 0 l 89 0 l 89 688 l 285 688 l 285 533 q 372 665 317 625 q 492 704 428 704 q 535 701 518 704 q 565 694 551 697 l 556 499 q 524 506 543 501 q 475 511 504 511 q 349 449 392 511 q 304 281 306 388 l 304 0 m 24 -276 l 47 -206 q 83 -220 53 -210 q 151 -231 113 -231 q 206 -219 188 -231 q 225 -185 225 -208 q 210 -149 225 -162 q 171 -136 196 -136 l 122 -146 l 88 -112 l 156 0 l 246 0 l 193 -83 l 257 -74 q 335 -103 306 -74 q 364 -182 364 -132 q 315 -274 364 -242 q 183 -306 267 -306 q 90 -296 131 -306 q 24 -276 49 -286 z "},"Ř":{"ha":892,"x_min":89,"x_max":864,"o":"m 317 393 l 317 0 l 89 0 l 89 968 l 460 968 q 721 905 631 968 q 811 710 811 842 q 764 565 811 631 q 615 479 717 500 q 705 401 676 463 q 754 283 733 340 l 760 271 l 864 0 l 619 0 l 522 268 q 474 358 504 322 q 386 393 443 393 l 317 393 m 317 560 l 413 560 q 535 590 490 560 q 579 681 579 619 q 535 773 579 744 q 406 801 492 801 l 317 801 l 317 560 m 174 1228 l 319 1228 l 418 1115 l 517 1228 l 663 1228 l 508 1024 l 328 1024 l 174 1228 z "},"ř":{"ha":582,"x_min":89,"x_max":578,"o":"m 304 0 l 89 0 l 89 688 l 285 688 l 285 533 q 372 665 317 625 q 492 704 428 704 q 535 701 518 704 q 565 694 551 697 l 556 499 q 524 506 543 501 q 475 511 504 511 q 349 449 392 511 q 304 281 306 388 l 304 0 m 89 1010 l 235 1010 l 333 897 l 432 1010 l 578 1010 l 424 806 l 243 806 l 89 1010 z "},"Ś":{"ha":813,"x_min":69,"x_max":749,"o":"m 749 279 q 644 61 749 139 q 361 -17 539 -17 q 204 -2 279 -17 q 82 26 129 13 l 100 221 q 199 180 124 204 q 349 156 274 156 q 469 185 422 156 q 515 264 515 214 q 481 335 515 303 q 342 403 446 368 q 137 510 204 447 q 69 692 69 572 q 173 908 69 832 q 457 985 276 985 q 588 974 525 985 q 694 947 651 963 l 678 767 q 577 801 629 789 q 464 813 525 813 q 347 785 390 813 q 304 704 304 758 q 337 640 304 667 q 496 571 369 614 q 692 460 636 525 q 749 279 749 394 m 296 1026 l 399 1228 l 625 1228 l 439 1026 l 296 1026 z "},"ś":{"ha":654,"x_min":46,"x_max":606,"o":"m 606 210 q 521 42 606 101 q 288 -17 436 -17 q 156 -7 219 -17 q 51 18 92 3 l 65 183 q 144 156 82 176 q 275 135 206 135 q 356 149 326 135 q 386 200 386 164 q 355 249 386 231 q 244 286 324 267 q 103 348 161 303 q 46 486 46 393 q 132 647 46 590 q 349 704 218 704 q 467 694 407 704 q 567 671 526 683 l 553 514 q 470 543 521 532 q 371 554 419 554 q 286 540 314 554 q 258 496 258 525 q 289 457 258 472 q 414 418 319 442 q 560 342 514 393 q 606 210 606 292 m 219 808 l 322 1010 l 549 1010 l 363 808 l 219 808 z "},"Ţ":{"ha":783,"x_min":17,"x_max":767,"o":"m 506 0 l 278 0 l 278 796 l 17 796 l 17 968 l 767 968 l 767 796 l 506 796 l 506 0 m 221 -276 l 244 -206 q 280 -220 250 -210 q 349 -231 310 -231 q 403 -219 385 -231 q 422 -185 422 -208 q 408 -149 422 -162 q 368 -136 393 -136 l 319 -146 l 285 -112 l 353 0 l 443 0 l 390 -83 l 454 -74 q 532 -103 503 -74 q 561 -182 561 -132 q 513 -274 561 -242 q 381 -306 464 -306 q 287 -296 328 -306 q 221 -276 246 -286 z "},"ţ":{"ha":578,"x_min":17,"x_max":560,"o":"m 371 253 q 395 167 371 196 q 467 139 419 139 q 517 144 496 139 q 550 156 539 150 l 556 0 q 497 -11 539 -6 q 407 -17 454 -17 q 219 44 282 -17 q 156 226 156 106 l 156 533 l 17 533 l 17 682 l 158 688 l 167 842 l 369 907 l 371 688 l 546 688 l 546 533 l 371 533 l 371 253 m 219 -276 l 243 -206 q 278 -220 249 -210 q 347 -231 308 -231 q 402 -219 383 -231 q 421 -185 421 -208 q 406 -149 421 -162 q 367 -136 392 -136 l 318 -146 l 283 -112 l 351 0 l 442 0 l 389 -83 l 453 -74 q 531 -103 501 -74 q 560 -182 560 -132 q 511 -274 560 -242 q 379 -306 463 -306 q 285 -296 326 -306 q 219 -276 244 -286 z "},"Ť":{"ha":783,"x_min":17,"x_max":767,"o":"m 506 0 l 278 0 l 278 796 l 17 796 l 17 968 l 767 968 l 767 796 l 506 796 l 506 0 m 151 1228 l 297 1228 l 396 1115 l 494 1228 l 640 1228 l 486 1024 l 306 1024 l 151 1228 z "},"ť":{"ha":903,"x_min":17,"x_max":918,"o":"m 371 253 q 395 167 371 196 q 467 139 419 139 q 517 144 496 139 q 550 156 539 150 l 556 0 q 497 -11 539 -6 q 407 -17 454 -17 q 219 44 282 -17 q 156 226 156 106 l 156 533 l 17 533 l 17 682 l 158 688 l 167 842 l 369 907 l 371 688 l 546 688 l 546 533 l 371 533 l 371 253 m 704 969 q 894 967 871 969 q 918 961 918 964 l 779 603 l 611 606 l 614 614 l 701 958 l 697 964 l 704 969 z "},"Ū":{"ha":1010,"x_min":92,"x_max":919,"o":"m 692 410 l 692 968 l 919 968 l 919 379 q 816 82 919 181 q 507 -17 713 -17 q 199 78 306 -17 q 92 358 92 174 l 92 968 l 319 968 l 319 401 q 365 219 319 282 q 506 157 411 157 q 647 222 601 157 q 692 410 692 286 m 269 1190 l 735 1190 l 735 1075 l 269 1075 l 269 1190 z "},"ū":{"ha":885,"x_min":85,"x_max":797,"o":"m 797 688 l 797 0 l 597 0 l 597 122 q 502 24 567 65 q 351 -17 438 -17 q 153 56 222 -17 q 85 265 85 129 l 85 688 l 301 688 l 301 331 q 331 201 301 243 q 426 158 360 158 q 538 213 497 158 q 582 372 579 268 l 582 688 l 797 688 m 210 972 l 675 972 l 675 857 l 210 857 l 210 972 z "},"Ů":{"ha":1010,"x_min":92,"x_max":919,"o":"m 692 410 l 692 968 l 919 968 l 919 379 q 816 82 919 181 q 507 -17 713 -17 q 199 78 306 -17 q 92 358 92 174 l 92 968 l 319 968 l 319 401 q 365 219 319 282 q 506 157 411 157 q 647 222 601 157 q 692 410 692 286 m 506 1310 q 613 1265 568 1310 q 657 1158 657 1221 q 613 1051 657 1096 q 506 1007 568 1007 q 399 1051 443 1007 q 354 1158 354 1096 q 399 1265 354 1221 q 506 1310 443 1310 m 506 1229 q 456 1208 476 1229 q 435 1158 435 1188 q 456 1108 435 1129 q 506 1088 476 1088 q 556 1108 535 1088 q 576 1158 576 1129 q 556 1208 576 1188 q 506 1229 535 1229 z "},"ů":{"ha":885,"x_min":85,"x_max":797,"o":"m 797 688 l 797 0 l 597 0 l 597 122 q 502 24 567 65 q 351 -17 438 -17 q 153 56 222 -17 q 85 265 85 129 l 85 688 l 301 688 l 301 331 q 331 201 301 243 q 426 158 360 158 q 538 213 497 158 q 582 372 579 268 l 582 688 l 797 688 m 446 1092 q 553 1047 508 1092 q 597 940 597 1003 q 553 833 597 878 q 446 789 508 789 q 339 833 383 789 q 294 940 294 878 q 339 1047 294 1003 q 446 1092 383 1092 m 446 1011 q 396 990 417 1011 q 375 940 375 969 q 396 890 375 911 q 446 869 417 869 q 496 890 475 869 q 517 940 517 911 q 496 990 517 969 q 446 1011 475 1011 z "},"Ű":{"ha":1010,"x_min":92,"x_max":919,"o":"m 692 410 l 692 968 l 919 968 l 919 379 q 816 82 919 181 q 507 -17 713 -17 q 199 78 306 -17 q 92 358 92 174 l 92 968 l 319 968 l 319 401 q 365 219 319 282 q 506 157 411 157 q 647 222 601 157 q 692 410 692 286 m 267 1026 l 369 1226 l 594 1226 l 410 1026 l 267 1026 m 576 1026 l 678 1226 l 904 1226 l 719 1026 l 576 1026 z "},"ű":{"ha":885,"x_min":85,"x_max":844,"o":"m 797 688 l 797 0 l 597 0 l 597 122 q 502 24 567 65 q 351 -17 438 -17 q 153 56 222 -17 q 85 265 85 129 l 85 688 l 301 688 l 301 331 q 331 201 301 243 q 426 158 360 158 q 538 213 497 158 q 582 372 579 268 l 582 688 l 797 688 m 207 808 l 310 1008 l 535 1008 l 350 808 l 207 808 m 517 808 l 618 1008 l 844 1008 l 660 808 l 517 808 z "},"Ų":{"ha":1010,"x_min":92,"x_max":919,"o":"m 692 410 l 692 968 l 919 968 l 919 379 q 816 82 919 181 q 507 -17 713 -17 q 199 78 306 -17 q 92 358 92 174 l 92 968 l 319 968 l 319 401 q 365 219 319 282 q 506 157 411 157 q 647 222 601 157 q 692 410 692 286 m 500 0 l 583 0 q 506 -73 542 -28 q 469 -160 469 -118 q 488 -206 469 -190 q 529 -221 506 -221 q 567 -212 547 -221 q 610 -179 586 -203 l 661 -201 q 583 -284 626 -262 q 478 -306 540 -306 q 376 -275 414 -306 q 339 -182 339 -244 q 392 -75 339 -124 q 500 0 446 -26 z "},"ų":{"ha":885,"x_min":85,"x_max":824,"o":"m 797 688 l 797 0 l 597 0 l 597 122 q 502 24 567 65 q 351 -17 438 -17 q 153 56 222 -17 q 85 265 85 129 l 85 688 l 301 688 l 301 331 q 331 201 301 243 q 426 158 360 158 q 538 213 497 158 q 582 372 579 268 l 582 688 l 797 688 m 663 0 l 746 0 q 668 -73 704 -28 q 632 -160 632 -118 q 650 -206 632 -190 q 692 -221 668 -221 q 729 -212 710 -221 q 772 -179 749 -203 l 824 -201 q 746 -284 789 -262 q 640 -306 703 -306 q 539 -275 576 -306 q 501 -182 501 -244 q 555 -75 501 -124 q 663 0 608 -26 z "},"Ź":{"ha":819,"x_min":40,"x_max":768,"o":"m 768 172 l 768 0 l 40 0 l 40 172 l 503 796 l 57 796 l 57 968 l 761 968 l 761 794 l 290 172 l 768 172 m 303 1026 l 406 1228 l 632 1228 l 446 1026 l 303 1026 z "},"ź":{"ha":696,"x_min":40,"x_max":651,"o":"m 53 688 l 643 688 l 643 519 l 300 163 l 651 163 l 651 0 l 40 0 l 40 171 l 386 525 l 53 525 l 53 688 m 242 808 l 344 1010 l 571 1010 l 385 808 l 242 808 z "},"Ż":{"ha":819,"x_min":40,"x_max":768,"o":"m 768 172 l 768 0 l 40 0 l 40 172 l 503 796 l 57 796 l 57 968 l 761 968 l 761 794 l 290 172 l 768 172 m 417 1219 q 508 1218 507 1219 q 510 1124 510 1217 q 508 1029 510 1031 q 418 1028 507 1028 q 327 1029 328 1028 q 326 1124 326 1031 q 327 1218 326 1217 q 417 1219 328 1219 z "},"ż":{"ha":696,"x_min":40,"x_max":651,"o":"m 53 688 l 643 688 l 643 519 l 300 163 l 651 163 l 651 0 l 40 0 l 40 171 l 386 525 l 53 525 l 53 688 m 356 1001 q 447 1000 446 1001 q 449 906 449 999 q 447 811 449 813 q 357 810 446 810 q 266 811 267 810 q 265 906 265 813 q 266 1000 265 999 q 356 1001 267 1001 z "}}}
